<svg id="Layer_1" data-name="Layer 1" xmlns="http://www.w3.org/2000/svg" viewBox="0 0 1024 503"><defs><style>.cls-1{fill:#ccc0c0;}.cls-2{fill:#7a9fd3;}.cls-3{opacity:0.13;}.cls-15,.cls-16,.cls-3,.cls-4{font-size:18px;}.cls-15,.cls-17,.cls-3{font-family:Hind-Medium, Hind;}.cls-4{opacity:0.25;font-family:Hind-SemiBold, Hind;font-weight:700;}.cls-10,.cls-11,.cls-12,.cls-14,.cls-5,.cls-6,.cls-7,.cls-8,.cls-9{fill:none;stroke-linecap:round;stroke-linejoin:round;}.cls-14,.cls-20,.cls-21,.cls-22,.cls-23,.cls-24,.cls-25,.cls-26,.cls-5{stroke:#fff;}.cls-5{stroke-width:11px;}.cls-6{stroke:#f3630f;}.cls-10,.cls-11,.cls-12,.cls-6,.cls-7,.cls-8,.cls-9{stroke-width:8px;}.cls-7{stroke:#589446;}.cls-8{stroke:#970029;}.cls-9{stroke:#32619b;}.cls-10{stroke:#993788;}.cls-11{stroke:#009992;}.cls-12{stroke:#aac909;}.cls-13,.cls-27,.cls-28,.cls-29{opacity:0;}.cls-14{stroke-width:16px;}.cls-16,.cls-18{font-family:Hind-Light, Hind;}.cls-17{font-size:21px;}.cls-18{font-size:16px;}.cls-19{font-size:14px;font-family:Hind-Regular, Hind;}.cls-20{fill:#32619b;}.cls-20,.cls-21,.cls-22,.cls-23,.cls-24,.cls-25,.cls-26{stroke-miterlimit:10;stroke-width:2px;}.cls-21{fill:#f3630f;}.cls-22{fill:#970029;}.cls-23{fill:#589446;}.cls-24{fill:#993788;}.cls-25{fill:#8cc63f;}.cls-26{fill:#009992;}.cls-27{fill:#f0f;}.cls-28{fill:#a8695b;}.cls-29{fill:#29abe2;}</style></defs><title>edt-map</title><g id="background"><rect class="cls-1" x="-0.5" y="-0.5" width="1024" height="504"/><path id="lake_arrowhead" data-name="lake arrowhead" class="cls-2" d="M386.939,101.745q-.446,3.295-.892,6.589c-.332,1.117-.605,2.257-1.006,3.349-1.545,4.209-3.271,8.358-4.623,12.626a9.848,9.848,0,0,0,.043,4.855c.325,1.481.316,2.1-1.4,1.929-2.593-.254-5.22-.254-7.787-.654-1.264-.2-2.487-.809-.514-2.3,1.94-1.462,1.249-7.571-.893-8.71a3.271,3.271,0,0,0-2.674-.027,32.094,32.094,0,0,0-6.416,4.181c-1.385,1.27-1.91.8-2.685-.3-1.551-2.207-3.082-4.438-6.364-3.253a4.28,4.28,0,0,1-.356-1.073,17.242,17.242,0,0,1,.076-1.874,15.03,15.03,0,0,1-1.815.2,9.531,9.531,0,0,1-2.672-.2c-1.547-.466-2.987-1.446-4.55-1.67-5.228-.75-8.2,1.659-8.8,6.89-.065.565-.122,1.427.2,1.694,2.6,2.165.666,3.715-.71,5.208a3.937,3.937,0,0,0-.949,4.607c.142.354-.92,1.635-1.575,1.77a27.53,27.53,0,0,1-4.392.14c-2.411.1-3.321,1.4-3.17,3.771.133,2.1-.288,4.261.057,6.307a53.648,53.648,0,0,0,2.347,9.214c1.207,3.354,2.895,6.533,4.3,9.82a1.48,1.48,0,0,1-.515,1.147,2.533,2.533,0,0,1-1.433-.593c-2.052-1.852-4.015-3.806-6.1-5.613a2.533,2.533,0,0,0-2.019-.54c-2.054.632-3.87,1-5.741-.692-.327-.3-2.853.8-3.113,1.636-1.585,5.113-6.686,7.087-9.415,11.1a4.822,4.822,0,0,0-.732,2.989c.187,1.769.956,4.031-1.1,4.611a6.254,6.254,0,0,1-5.031-1.409c-2.265-2.087-4.257-3.888-7.64-2.933a6.581,6.581,0,0,1-3.008-.43c-1.414-.342-2.2-1.052-1.446-2.676.85-1.829.25-3.274-1.424-4.319-1.127-1.086-2.533-1.868-3.172-3.464a4.857,4.857,0,0,1-.54-3.125,3.061,3.061,0,0,1,.137-.613c.643-1.167,2.178-1.666,2.378-3.166-1.09-1.328-2.8-.889-4.153-1.469-.623-.267-.657.555-.831,1.012-.831,2.179-.1,4.491-.59,6.7a2.7,2.7,0,0,1-.207,1.241,1.222,1.222,0,0,1-1.049.657l-.322-.032c-2.709-1.155-5.6-2.02-8.078-3.548s-4.647-2.64-7.436-.887a5.205,5.205,0,0,1-2.551.434c-3.541.064-3.911.509-4.044,4.141a20.5,20.5,0,0,1-.923,3.954,1.854,1.854,0,0,1-.8.191l-.255-.111-.175-.217a18.275,18.275,0,0,0-2.94-2.117,7.714,7.714,0,0,0-3.8-.982c-1.81.2-1.444,1.811-1.208,3.118-.756.055-1.5.449-2.271.065l-.021-.031c-.075-.175-.168-.194-.282-.033l-.552.051c-1.436.53-3,1.071-4.407.455a3.12,3.12,0,0,0-4.162.908l-.924-.417a2.449,2.449,0,0,0-2.467,1.23l-1.244-.031c-.569-.137-.7-.7-1.036-1.062a9.132,9.132,0,0,0-5.467-.994c-.377.057-.708.148-1.007-.154l-.531-.087c-.493-.33-1.116.262-1.586-.224l-1.863.4c-.581.895.032,1.932-.34,2.852a6.872,6.872,0,0,0-.758,1.68c-.06.352.543.813.487,1.169-.17,1.086-.515,2.145-.793,3.214a8.419,8.419,0,0,1-1.241-2.53c-.34-3.106-3.008-4.574-4.735-6.568-1.2-1.391-.857-1.975.2-2.382,2.838-1.09,5.793-1.871,8.676-2.849a17.093,17.093,0,0,0,2.4-1.248c-.772-.462-1.552-.911-2.315-1.387-1.69-1.054-4.173-1.782-4.809-3.287-.536-1.268,1-3.481,1.795-5.194a1.9,1.9,0,0,1,1.65-.645c2.5.49,4.964,1.194,7.466,1.7a3.615,3.615,0,0,0,2.243-.264c2.462-1.31,4.863-2.736,7.257-4.169,4.544-2.719,5.041-7.219.554-9.99-5.055-3.121-6.839-8.184-9.465-12.872-.818-1.461-2.445-2.446-3.548-3.777a35.368,35.368,0,0,1-2.3-3.511,14.3,14.3,0,0,1,3.8.537c3.791,1.642,7.514,3.45,11.194,5.33a2.764,2.764,0,0,1,1.091,1.957c.412,4.166,2.859,6.545,6.531,8.1a35.832,35.832,0,0,1,5.466,3.021c1.749,1.138,2.924.364,4.334-.668.853-.624,2.294-1.248,3.138-.945,4.6,1.651,9.117,3.535,13.61,5.462,1.334.572,2.607,1.239,3.3-.522,1.508-3.852,4.572-3.606,7.648-2.947,1.664.356,2.135-.455,2.074-1.614-.054-1.02-.646-2.861-1.067-2.88-4.133-.192-6.25-2.639-8.234-5.94-1.752-2.916-4.986-3.86-8.393-4.018a14.64,14.64,0,0,1-4.452-.839c-1.339-.507-2.074-1.476-.423-2.745.5-.382.655-1.2.969-1.824a8.319,8.319,0,0,0-1.92-.689c-1.473-.152-3.328.814-3.621-1.964-.051-.484-2.514-.659-3.825-1.092-.5-.166-1.219-.6-1.285-1-.355-2.151-.029-4.479-2.6-5.733-.512-.249-.629-1.683-.613-2.565.037-2.148-.9-3.134-3.038-3.085a18.873,18.873,0,0,1-4.175-.128,4.381,4.381,0,0,1-2.145-1.616c-.119-.144.886-1.046,1.111-1.69a4.068,4.068,0,0,0,.341-2.509,5.74,5.74,0,0,0-6.805-3.048c-2.377.753-4.685,1.735-7.078,2.426a2.8,2.8,0,0,1-2.4-.389,27.96,27.96,0,0,1-3.842-5.765c-.223-.475,1.223-1.956,2.132-2.684,1.1-.881,3.464-1.415,3.492-2.166a12.55,12.55,0,0,0-1.439-5.9c-.639-1.258-2.244-2.01-3.36-3.05a2.626,2.626,0,0,1-.827-1.388c-.031-.206.771-.484,1.12-.808,1.205-1.121,2.369-2.287,3.569-3.414.339-.318.8-.846,1.117-.787a29.311,29.311,0,0,1,3.281.975,5.976,5.976,0,0,0-1.052,1.472,2.456,2.456,0,0,0-.043,1.859,37.565,37.565,0,0,0,4.121,4.86,3.72,3.72,0,0,0,2.561.435c2.269-.191,4.389-.467,5.527,2.3a2.877,2.877,0,0,0,2.571,1.038c3.979-1.1,7.792.406,11.619.386,3.282-.017,5.338-.19,7.071,3.289,1.171,2.35,3.98,3.991,6.291,5.616a6.562,6.562,0,0,0,3.9.753,36.811,36.811,0,0,1,15.705,2.3c.478.185,1.118.76,1.138,1.181.109,2.231,1.62,2.2,3.125,2a55.041,55.041,0,0,0,5.829-1.128c.432-.107.718-.8,1.072-1.223-2.086-1.737-.583-3.453.05-5.158.329-.886.751-1.737,1.131-2.6.319-.109.448.03.444.342-.327,2.566.819,4.323,2.975,5.594a46.316,46.316,0,0,1,3.928,2.614c.23.169.2.757.207,1.153.081,3.087,1.489,4.855,4.61,5.429,1.7.312,2.776.694,1.875,2.762-.145.332.633,1.524,1.082,1.584a61.32,61.32,0,0,0,8.713.712,4.1,4.1,0,0,0,2.8-1.884c2.21-3.651,5.529-5.721,9.272-7.455a21.276,21.276,0,0,0,6.048-3.909,6.471,6.471,0,0,0,1.874-4.786c-.177-1.165-2.176-2.373-3.612-2.965-3.994-1.65-7.884-.893-11.592,1.167a4.192,4.192,0,0,1-1.418.212c.022-.538-.15-1.21.108-1.585a5.971,5.971,0,0,1,1.868-1.81c4.063-2.283,6.646-5.411,6.478-10.352-.073-2.143.974-2.1,2.492-1.13,2.313,1.476,4.362,1.773,6.158-1.024,1.082-1.685,2.723-3.7,4.133-.021a2.647,2.647,0,0,0,1.06,1.1c1.126.723,2.3,1.367,3.458,2.043.242-1.037.518-2.067.719-3.112.473-2.458.953-4.615,2.987-6.686,1.854-1.889,2.255-5.2,3.328-7.866A17.239,17.239,0,0,1,354.357,56a7.483,7.483,0,0,0,1.217,1.289c3.18,2.077,1.449,4.748.982,7.307-.38,2.082.868,3.066,2.677,3.659a6.373,6.373,0,0,1,1.527,1.075,6.225,6.225,0,0,0-1.44.749c-.358.322-.837.95-.733,1.273.691,2.155,1.275,4.437,3.856,5.235,2.344.725,3.426,2.483,4.154,4.736a7.348,7.348,0,0,0,2.247,3.249,22.385,22.385,0,0,0,5.854,3.872C381.082,90.864,385.224,95.134,386.939,101.745Z"/><g id="big_bear_lake" data-name="big bear lake"><path class="cls-2" d="M581.314,112.461l.213-.207c.143-.226.446-.16.617-.334l-.018.012a3.941,3.941,0,0,1,.3-.307l-.014.02c.167-.16.11-.439.31-.58l-.006.015c.562-.341,1.114-.708,1.659-1.066a3.191,3.191,0,0,0,1.76-2.279,2.755,2.755,0,0,1,.9-1.57l-.014,0a2.13,2.13,0,0,1,.3-.3l-.011.011c.15-.188.427-.135.587-.306l-.018.014q.137-.139.268-.284c4.055-2.77,8.192-5.432,12.125-8.366,1.48-1.1,2.454-2.871,3.725-4.275.663-.733,1.751-1.2,2.161-2.024,1.557-3.134,5.207-.771,7.179-2.918a8.708,8.708,0,0,1,3.81-2.518c1.519-.419,3.254-.052,4.895-.028,3.635.361,7.267.759,10.907,1.073.143.012.314.066.425,0a4.935,4.935,0,0,1,4.224-.524.614.614,0,0,0,.712-.379c.619-1.809,2.521-2.044,3.748-3.1l-.017.01q.136-.147.276-.291c2.723-3.11,2.394-4.585-1.37-6.36-1.115-.526-2.178-1.164-3.265-1.751-.259-.292-.561-.643-.438-1.013.459-1.38-.455-2.1-1.281-2.885a2.431,2.431,0,0,1-.777-2.589c.1-.343.35-.78-.1-1.032s-.658.2-.927.452c-1.4,1.294-2.316,1.347-3.578.217-.128-.309-.176-.8-.4-.9-3.518-1.5-1.831-4.817-2.589-7.27-.4-2.4.228-4.755.424-7.124a1.535,1.535,0,0,1,2.149-1.295c1.861,1.111,3.6.233,5.386.08a1.742,1.742,0,0,1,1.59.361l-.016-.016a1.624,1.624,0,0,0,2.026.55c.926-.346,1.507.181,1.576,1.106a11.836,11.836,0,0,0,.309,2.126,1.38,1.38,0,0,0,1.392,1.222c.727-.022,1.082-.514,1.272-1.172a11.265,11.265,0,0,0,.352-2.267c.088-1.116.643-1.832,1.851-1.7,1.128.128,2.2-.829,3.34-.14l-.027-.007c-.112.7-.166,1.415-.346,2.1-.787,2.992.579,5.294,3.45,6.34,1.483.54,3.439.9,3.331,3.3-.013.3,1,.892,1.561.924,2.294.131,4.613-.362,6.643,1.5.442.4,2.146-.57,3.268-.909.019-.061.037-.121.055-.183a3.164,3.164,0,0,1,.39-.429,1.761,1.761,0,0,1,.323-.242,1.471,1.471,0,0,1,.383-.155c.139-.021.277-.045.415-.074a1.873,1.873,0,0,1,2.337.487,2.773,2.773,0,0,0,1.224.726,3.94,3.94,0,0,1,2.282,1.867,6.165,6.165,0,0,0,1.763,1.857c2.127,1.557,2.475,1.558,4.34-.276a2.12,2.12,0,0,1,2.374-.536,7.41,7.41,0,0,1,3.882,2.583c1.48,2.236,3.877,2.645,6.2,3.194a3.451,3.451,0,0,0,2.18-.589,6.992,6.992,0,0,1,6.808.488c1.963,1.251,4.152,1.94,6.132,3.1.938.549,2.152.3,3.24.4a16.938,16.938,0,0,0,2.3.01c1.057-.044,1.534.359,1.633,1.482.168,1.917.051,3.829.116,5.4-.015-1.7.015-3.74,0-5.782a.7.7,0,0,1,.3-.572c2.876-.019,5.751-.047,8.627-.042.316,0,.828.108.918.311.96,2.187,2.155,1.056,3.687.632a16.034,16.034,0,0,1,5.664-.045,41.545,41.545,0,0,1,6.452,1.116c1.023.267,1.826,1.295,2.842,1.681a21.968,21.968,0,0,0,13.233.834c3.163-.747,5.322-2.67,7.821-4.39,1.106-.761,3.41.115,5.143.407,1.447.244,2.872,1.089,4.276,1.023,4.029-.188,8.046-.68,12.059-1.128.345-.038.706-.583.93-.968,2.182-3.752,5.979-5.3,9.6-7.089l.484-.014c.475-.228-.119-.921.477-1.1.711,1.5,2.026,1.217,3.281,1.118.345-.411.836-.335,1.288-.39.151-.02.3-.044.45-.073,1.572-.079,3.122.225,4.7.238a13.4,13.4,0,0,0,6.5-1.977c2.145-1.152,3.19-1.072,5.182.427a13.672,13.672,0,0,0,5.04,2.643,7.435,7.435,0,0,1,4.262,2.68A10.611,10.611,0,0,0,834.7,75.9a5.429,5.429,0,0,1,3.2,1.432c1.3,3.532,2.616,7.058,3.87,10.606.149.42.112,1.241-.132,1.388a1.771,1.771,0,0,1-1.528.006,2.548,2.548,0,0,0-3.866.946.516.516,0,0,1-.158.645,15.543,15.543,0,0,0-3.361,3.041,2.077,2.077,0,0,1-1.282.594,19.25,19.25,0,0,1-6.386-.214c-.39-.014-.469.266-.52.571a2.425,2.425,0,0,1-1.747,1.89,5.314,5.314,0,0,0-2.54,2.437,13.862,13.862,0,0,0-1.794,3.061,2.615,2.615,0,0,1-2.36,1.6c-2.391.21-4.394,1.518-6.654,2.05-1.752.412-3.464,1.025-5.253.038a2.622,2.622,0,0,0-2.449.113c-1.789.8-3.354,2.007-5.239,2.636-.933.311-1.484,1.3-2.188,2.011-1.331.941-2.84.58-4.3.593-.208-.007-.416-.034-.622-.059a2.256,2.256,0,0,1-.39-.049c-.638-.077-1.279-.012-1.917-.042-.123,0-.247-.011-.37-.023a2.055,2.055,0,0,1-.5-.185,2.234,2.234,0,0,1-.312-.15c-.152-.076-.3-.161-.454-.237a2.132,2.132,0,0,1-.315-.158,2.7,2.7,0,0,1-.454-.308c-.092-.09-.178-.184-.264-.28a9.982,9.982,0,0,1-3.894-4.769,8.61,8.61,0,0,0-2.363-3.68c-2.335-1.8-5.5-.476-7,1.761a3.382,3.382,0,0,1-.59.622c-1.64,1.467-1.7,2.1-.637,3.946a29.651,29.651,0,0,0,3,4.866,2.058,2.058,0,0,0,1.178,1.174,11.443,11.443,0,0,1,5.221,4.225,6.038,6.038,0,0,0,1.056,1.353,8.592,8.592,0,0,1,1.965,6.124,1.4,1.4,0,0,1-1.6,1.581,17.223,17.223,0,0,1-6.6.247c-1.125-.1-2.2.553-3.338.273a1.343,1.343,0,0,1-.4.052c-.323-.007-.626.154-.953.128-.244-.022-.468-.133-.708-.172a2.483,2.483,0,0,0-.691-.031c-.291,0-.567-.111-.857-.123-.449.106-.695.575-1.159.645a2.62,2.62,0,0,1-.717.006.5.5,0,0,0-.42.42c-.015.205-.046.412.16.555.11.039.212.083.318.127a1.4,1.4,0,0,0,1.278-.057,1.283,1.283,0,0,1,.347-.173,1.159,1.159,0,0,1,.389-.03,4.755,4.755,0,0,0,.774.132,4.127,4.127,0,0,1,1.006.1c.734.235.9,1.039,1.456,1.451,1,1.223.966,1.986-.236,2.849a17.777,17.777,0,0,1-3.412,1.8,1.492,1.492,0,0,1-1.63-.191,43.961,43.961,0,0,1-3.638-2.988c-1.573-1.774-2.705-1.886-4.668-.58a6.8,6.8,0,0,1-.318,1.2,7.736,7.736,0,0,1-.97,1.7c-.937,1.132-2.011,2.154-2.906,3.315a4.406,4.406,0,0,0-.4,1.665l-1.248-1.462-.027-.029c.031-1.23.1-2.46.066-3.688-.009-.294-.37-.577-.569-.865l-.8.787c-.069.9.46,1.866-.331,2.673l-.354,1.21c-.332-1.194-.73-2.624-1.134-4.052,0-.014-.119-.023-.131,0a1.227,1.227,0,0,0-.09.227,1.813,1.813,0,0,1-.039,1.408l-.888,4.586c-.264.206-.529.095-.8.007a1.652,1.652,0,0,1-.431-.239,3.169,3.169,0,0,1-.213-.245c-.7-.286-1.444-.861-2.1-.779-.718.09-2.688-1.554-2.132,1.171.1.513-.48,1.28-.942,1.729-.141.137-.935-.4-1.43-.625l-2.31-1.054c-2.1.889-4.163,1.851-6.184,2.905a1.1,1.1,0,0,1-.842-.007c-.42-.107-.557-.449-.67-.808a1.958,1.958,0,0,0-.166-.257,1.011,1.011,0,0,0-.215-.176,1.721,1.721,0,0,0-.245-.086s-.124-.012-.124-.012a1.094,1.094,0,0,0-.125.012.626.626,0,0,0-.225.133,1.362,1.362,0,0,0-.156.245c-.016.051-.033.1-.048.148a1.158,1.158,0,0,0,.066.654c.058.109.114.216.176.322a3.054,3.054,0,0,1,.205.325c.027.061.052.121.081.181a1.929,1.929,0,0,1-.147,1.388,1.216,1.216,0,0,1-.25.323,1.379,1.379,0,0,1-1.468.17c-.4-.163-.5-.955-.928-.722a5.956,5.956,0,0,0-1.78,1.37c-.239.288-.37.665-.732.849a3.4,3.4,0,0,1-1,.152c-.368-.029-.741-.211-1.1.04a1.4,1.4,0,0,1-.377.108,1.261,1.261,0,0,1-.771-.167,1.437,1.437,0,0,1-.349-.2,1.518,1.518,0,0,1-.274-.287c-.033-.055-.063-.114-.1-.17-.265-.417-.356-.967-.9-1.174a1.5,1.5,0,0,1-.538-1.121c-.228-2.112-1.032-2.841-3.193-2.917a2.138,2.138,0,0,1-1.378-.234,1.238,1.238,0,0,1-.206-1.345,3.214,3.214,0,0,0-.06-1.97c.023-1.5.123-2.957,1.465-3.987.379-.291.364-.872.667-1.245.191-.44.019-.8-.38-.426a9.065,9.065,0,0,1-3.716,1.7c-.711.228-.99.839-1.326,1.42-.568.978-1.068,2.174-2.422,2.116-1.549-.066-2.368-1.232-3.013-2.5-.129-.254-.236-.521-.374-.773-.527-1.344-.186-2.86-.883-4.188a3.033,3.033,0,0,0-1.5-1.635,8.662,8.662,0,0,1-2.861-2.345,2.37,2.37,0,0,1-.045-3.383c.435-.572,1.02-1.013,1.423-1.61.183-.343.232-.727-.245-.763-.627-.047-1.186-.415-1.824-.336a3.308,3.308,0,0,1-3.682-2.118,4.867,4.867,0,0,0-.4-.6c-.976-1.464-1.47-1.563-2.883-.577a2.221,2.221,0,0,1-.818.115c-1.436.24-2.81-.371-4.233-.308a1.78,1.78,0,0,1-.6.144c-.068-.009-.137-.02-.206-.029-.064-.024-.128-.05-.192-.074-1.143-1.225-2.271-.149-3.394.029a1.22,1.22,0,0,0-.017.3,1.4,1.4,0,0,0,.1.3,1.253,1.253,0,0,0,.361.321,1.718,1.718,0,0,1,.474.486.541.541,0,0,0,.4.217,1.648,1.648,0,0,1,1.273.874c.265-.025-.365.581.23.321a.989.989,0,0,1,.7.2,4.333,4.333,0,0,0,.731.582c1.725.919,2.785,2.581,4.247,3.793a8.284,8.284,0,0,0,2.68,2.684c.341.5.57,1.018.092,1.568a1.442,1.442,0,0,1-1.6.357,5.7,5.7,0,0,1-3.774-3.04,9.653,9.653,0,0,0-5.333-4.764c-.407-.172-.849-.276-1.089.283-.026.122-.049.245-.066.368a2.683,2.683,0,0,1-.272.872,1.737,1.737,0,0,1-.112.35,3.6,3.6,0,0,1-.26.5,1.482,1.482,0,0,1-.231.3,2.124,2.124,0,0,0-.315.485c-.164.454.13.842.17,1.262a1.516,1.516,0,0,1-1.05,1.688c-.781.289-1.121-.348-1.443-.872a3.343,3.343,0,0,1-.316-2.371,9.478,9.478,0,0,0,.182-1.564c0-1.693-.41-2.215-2.11-2.154a31.845,31.845,0,0,1-5.535-.719c-1.15-.158-2.289-.065-3.426-.188a22.85,22.85,0,0,1-2.27-1.227,2.342,2.342,0,0,0-2.281-.282c-1.561.589-2.728-.622-2.319-2.258.6-2.381-.008-3.65-2.239-4.688a7.4,7.4,0,0,1-1.23-.739c-1.685-1.23-3.406-.965-5.164-.234a2.509,2.509,0,0,0-1.762,2.852,1.413,1.413,0,0,1-.918,1.584c-.907.415-1.765.947-2.681,1.359-.678.305-1.338.779-1.373,1.514a1.765,1.765,0,0,0,1.158,1.54c.961.439,1.763.949,1.927,2.1.034.239.313.372.529.457,4.434,1.746,7.188,5.3,9.757,9.052a9.059,9.059,0,0,0,1.392,1.626,2.434,2.434,0,0,0,.364.107,4.554,4.554,0,0,0,1.306.011c.143,0,.283.007.426.008.715,0,1.428-.027,2.139.011,1.381.073,1.845.716,1.461,2.031a6.835,6.835,0,0,0-.206,1.4c0,.139-.008.281-.014.42-.717,1.008-.312,1.735.594,2.337a1.235,1.235,0,0,1,.2.363,1.408,1.408,0,0,1,.006.62c-.325,1.722-.227,1.825,1.49,1.513a7.259,7.259,0,0,1,3.505.546,33.455,33.455,0,0,1,4.376,2.128c.62.3,1.333.768,1.1,1.647-.221.847-.992.936-1.733.973-.143.007-.287.026-.43.025-2.335-.007-2.448.068-3.281,2.215-.524.67-.145,1.649-.773,2.284a2.467,2.467,0,0,0-.17.323,2.443,2.443,0,0,1-.178.319c-.029.054-.065.1-.094.158-.166.268-.273.567-.423.845a1.76,1.76,0,0,1-1.992.732l-.042-.015c-1.167-.28-.665.947-1.154,1.28-.216.312-.662.562-.612.944.2,1.469-.981,2.163-1.673,3.13a1.35,1.35,0,0,1-1.255.559c-1.71-.1-3.413.13-5.122.115a1.673,1.673,0,0,0-1.333.729c-1.2.924-2.438,1.658-4,.848.192-1.831.214-3.394-2.4-3.477-.547-.017-1.316-1.529-1.5-2.449a29.725,29.725,0,0,1-.271-4.551l-.03-.185c-.008-.251.074-.493.076-.743a2.523,2.523,0,0,1,.047-.367,1.529,1.529,0,0,0,.046-.721,1.947,1.947,0,0,1,.022-.37,4.4,4.4,0,0,0,.03-.481.428.428,0,0,0-.076-.212c0,.009-.1-.04-.1-.03a.47.47,0,0,0-.207.088.6.6,0,0,1-.23.113l-.13.012a21.053,21.053,0,0,1-1.833,2.484,4.709,4.709,0,0,1-1.642.7,2.18,2.18,0,0,1,.015-2.855,3.05,3.05,0,0,0,.665-1.559c.056-.379-.036-.7-.441-.767-.5-.078-1.135.176-1.429-.4a3.287,3.287,0,0,1-.087-2.089c.54-.929.175-2.064.673-3,.314-.861,1.549-1.783-.181-2.5-.431-.511-1.13-.433-1.65-.747a2.694,2.694,0,0,1-1.4-1.506,3.636,3.636,0,0,0-.149-.376,1.656,1.656,0,0,1-.129-.37,1.441,1.441,0,0,0-.571-1.143c-.952-1.045-2.33-1.219-3.543-1.722-.457-.19-.8.228-1.189.375-.492.186-1.117.57-1.471.093-1.2-1.615-2.642-1.02-4.091-.619a2.525,2.525,0,0,1-.351.117,1.417,1.417,0,0,0-.744.412c-.038.047-.081.086-.12.133a2.883,2.883,0,0,1-.246.28c-.087.175-.066-.073-.088.108-.309,2.453-2.093,3.124-4.155,3.477-.131.022-.237.152-.353.235-1.125.971-2.245,1.948-3.383,2.9-.157.132-.51.289-.589.222-3.483-2.994-6.829-2.079-10.134.316-.5-.019-.756-.378-.992-.741a2.872,2.872,0,0,0-3.484-1.247,8.791,8.791,0,0,1-3.421.23,2.979,2.979,0,0,0-2.449,1.873c-.294,1.057.329,1.6,1.167,2.019,1.884.942,3.348,2.567,5.392,3.266a1.379,1.379,0,0,1,.908,1.614,3.835,3.835,0,0,0,1.547,3.577,11.581,11.581,0,0,0,4.133,2.411,2.84,2.84,0,0,1,2.1,2.633l.277.277a.958.958,0,0,1,.562.554,9.753,9.753,0,0,1,2.143,2.337,14.837,14.837,0,0,1,.579,3.748l3.394,2.214-1.854,1.852c-2.149,1.636-4.124,3.664-7.166,3.328-.3-.033-.542-.507-.811-.776-.279-1.116,1.217-1.1,1.274-2,.034-.126.069-.25.1-.376.066-.711-.358-.762-.91-.718a2.918,2.918,0,0,0-1.682.684c-.974.79-1.59.684-2.437-.219a4.2,4.2,0,0,0-1.468-1.32,1.585,1.585,0,0,0-1.115-.142,3.914,3.914,0,0,1-2.711-.387c-1.124-2.675-3.793-3.968-5.5-6.124-1.715.209-3.492.052-5.041,1.09-1,.669-1.9.1-2.245-1.207-.466-1.793-.472-3.676-1.116-5.435a2.251,2.251,0,0,0-.672-1.216c-.868-.592-1.933-.3-2.87-.64-.514-.184-.86.211-1.061.706a6.487,6.487,0,0,0-.361,2.226,4.207,4.207,0,0,0-.256,1.971,23.156,23.156,0,0,1-.524,5.827c-.217,1.348-.682,2.6-2.305,2.946-.678.145-.868.823-1.1,1.41-.177.453-.428.919-.972.945a1.06,1.06,0,0,1-1.034-.859c-.472-1.66-2.062-2.635-2.558-4.272a.893.893,0,0,0-.374-.425c-.534-.371-1.5-.152-1.671-.924-.175-.787.319-1.553.494-2.335a1.966,1.966,0,0,1,.211-.331c.135-.2.219-.347.021-.611-1.228-1.64-1.166-2.763.184-4.286a.362.362,0,0,1,.183-.191c0,.01-.12-.036-.123-.027a.591.591,0,0,1-.142.267c-.876.58-1.749-.218-2.67.033-.785.214-1.233.441-1.413,1.316-.4,1.947-.963,2.3-2.909,2.016-1-.145-2.177.173-2.834-.993-.077-.137-.263-.092-.369.017-.991,1.025-2.225.681-3.4.584-1-.082-1.992-.256-3-.311a1.389,1.389,0,0,1-1.455-1.591c.032-1.521-.008-1.549-1.521-1.217-.45.1-.968.021-1.364.4a5.73,5.73,0,0,0,.866,1.464,1.227,1.227,0,0,1-.343,1.775,1.177,1.177,0,0,1-1.787-.185,2.327,2.327,0,0,0-1.545-.886c-1.444-.4-2.353-1.762-3.818-2.182-.354-.1-.332-.648-.425-1.02-.218-.872-.723-1.087-1.483-.569a9.8,9.8,0,0,1-2.8,1.106c-.835.252-1.589.148-1.642-.956-.034-.711-.336-.878-1.007-.822-1.119.093-2.188-.8-3.348-.206h0q-1.565.844-3.189,1.568c-1.086.485-2.141.088-3.189-.122a.647.647,0,0,1-.524-.861c1.269-.959,2.526-1.934,3.811-2.871.726-.53,1.5-1,2.248-1.494.878-1.322,1.669-2.706,3.171-3.484a1.927,1.927,0,0,1,1.282-.409c2.348.366,2.35.349,3.3-1.816,1.925-2.252,3.6-4.81,5.857-6.657,1.718-1.405,4.187-1.878,6.3-2.825a23.411,23.411,0,0,0,2.532-1.425c1.192-.725,2.361-1.489,3.546-2.227a18.845,18.845,0,0,1,3.627-2.165,27.023,27.023,0,0,1,6.212-1.379c1.782-.157,2.815-.5,3.077-2.527.1-.795,1.333-1.444,2.05-2.159a1.306,1.306,0,0,1,.249-.226l.008.008c2.071-2.337,5.114-3.463,7.195-5.787l-.013.011C581.155,112.911,581.089,112.608,581.314,112.461Z"/><path class="cls-2" d="M892.63,58.64l3.264.784c.749.569,1.714-.143,2.465.415l.641.815a20.572,20.572,0,0,0-.161,3.126c.2,2.089-1.278,2.047-2.647,2.48a16.473,16.473,0,0,0-3.238,1.878.975.975,0,0,1-.688.971c-1.12.394-2.041,1.15-3.108,1.633a3.324,3.324,0,0,1-.572.157c-.936.256-.457,1.017-.558,1.571a.826.826,0,0,1-1.011.556c-1.134-.43-1.088-1.448-1.186-2.391a2.978,2.978,0,0,0-.154-.339,2.619,2.619,0,0,0-.408-.583l-.1-.145c-2.422-.066-4.849-.247-7.266-.167-2.859.094-5.71.442-8.568.593-.281.015-.795-.536-.852-.883a6.16,6.16,0,0,0-.53-2.434c-.141,2.2-.336,4.4-.407,6.605-.058,1.813.124,3.637-.023,5.439-.029.349-1.124.926-1.663.861-2.02-.244-4.014-.71-6.017-1.093l-.182.054a4.2,4.2,0,0,1-1.127.115,4.64,4.64,0,0,1-.47.056,1.819,1.819,0,0,0-.4.128,2.2,2.2,0,0,1-.241.149,1.284,1.284,0,0,1-.4.189.316.316,0,0,1-.273-.095,28.964,28.964,0,0,1-2.719,2.41c-2.459,1.7-4.99,3.3-7.5,4.934-.158.1-.393.12-.512.25-2.608,2.87-3.267.7-3.983-1.5-.856-2.633-1.776-5.244-2.668-7.865a1.692,1.692,0,0,1,1.568-.828c.43-.039.864-.013,1.294-.044,1.916-.14,3.859-.2,5.011-2.159a2.548,2.548,0,0,1,1.126-.877,15.038,15.038,0,0,0,5.751-5.676,10.8,10.8,0,0,1,5.675-4.39,5.739,5.739,0,0,1,5.582.757c2.261,1.628,4.9,1.686,7.437,1.542a6.139,6.139,0,0,0,5.252-4.2c1.184-2.982,3.451-3.978,6.277-4.507,1.55-.29,2.787.522,4.165.828a2.777,2.777,0,0,0,1.715.076C891.138,57.779,892.184,57.322,892.63,58.64Z"/></g><text class="cls-3" transform="translate(401.719 484.726)">MAP NOT TO SCALE</text><text class="cls-4" transform="translate(507.097 346.726)">SAN BERNARDINO <tspan x="-1.817" y="21.6">NATIONAL FOREST</tspan></text></g><g id="routes"><polyline class="cls-5" points="826 107 847 98 833 56 720 68 633 37 621 42 610 77 510 154 435 245 365 256 348.967 290.986 376 307 370 330 302 312 276 384 57 384 57 438 85 438"/><polyline class="cls-5" points="396 93 387 131 320 189 306 198 318 217 392 242 419.922 237.937"/><polyline class="cls-5" points="305 179 291 187 213 187 171 205 122 208 93 179 66 178 49 193 15 162"/><polyline class="cls-5" points="311.6 184.759 291.6 194.759 254.466 195.905 209 211 119 217 89.988 187.6 68.984 186.262 36 215 53 229 91 348 93 411 65 411 65 431 85 431"/><polyline id="Route_1" data-name="Route 1" class="cls-5" points="640 178 735 165 741 152 826 113 890 178 874 203 850.846 188.558 844 145"/><polyline id="Route_3" data-name="Route 3" class="cls-5" points="743 166 745 159 824 122 853 153 858 184 872 193 881 179 826 124 838 127"/><polyline id="Route_11" data-name="Route 11" class="cls-5" points="1004 143 977 143 959 80 946 77 943 50 923 50 917 80 830 122"/><polyline id="BB_OTM" data-name="BB OTM" class="cls-6" points="826 107 847 98 833 56 720 68 633 37 621 42 610 77 510 154 435 245 365 256 348.967 290.986 376 307 370 330 302 312 276 384 57 384 57 438 85 438"/><polyline id="Route_4" data-name="Route 4" class="cls-7" points="396 93 387 131 320 189 306 198 318 217 392 242 419.922 237.937"/><polyline id="Route_2" data-name="Route 2" class="cls-8" points="305 179 291 187 213 187 171 205 122 208 93 179 66 178 49 193 15 162"/><polyline id="RIM_OTM" data-name="RIM OTM" class="cls-9" points="311.6 184.759 291.6 194.759 254.466 195.905 209 211 119 217 89.988 187.6 68.984 186.262 36 215 53 229 91 348 93 411 65 411 65 431 85 431"/><polyline id="Route_1-2" data-name="Route 1" class="cls-10" points="640 178 735 165 741 152 826 113 890 178 874 203 850.846 188.558 844 145"/><polyline id="Route_3-2" data-name="Route 3" class="cls-11" points="743 166 745 159 824 122 853 153 858 184 872 193 881 179 826 124 838 127"/><polyline id="Route_11-2" data-name="Route 11" class="cls-12" points="1004 143 977 143 959 80 946 77 943 50 923 50 917 80 830 122"/></g><g id="route-highlights"><g id="route_4-2" data-name="route_4" class="cls-13"><polyline class="cls-14" points="396 93 387 131 320 189 306 198 318 217 392 242 419.922 237.937"/><polyline id="Route_4-3" data-name="Route 4" class="cls-7" points="396 93 387 131 320 189 306 198 318 217 392 242 419.922 237.937"/></g><g id="route_2-2" data-name="route_2" class="cls-13"><polyline class="cls-14" points="305 179 291 187 213 187 171 205 122 208 93 179 66 178 49 193 15 162"/><polyline id="Route_2-3" data-name="Route 2" class="cls-8" points="305 179 291 187 213 187 171 205 122 208 93 179 66 178 49 193 15 162"/></g><g id="rim_otm-2" data-name="rim_otm" class="cls-13"><polyline class="cls-14" points="311.6 184.759 291.6 194.759 254.466 195.905 209 211 119 217 89.988 187.6 68.984 186.262 36 215 53 229 91 348 93 411 65 411 65 431 85 431"/><polyline id="RIM_OTM-3" data-name="RIM OTM" class="cls-9" points="311.6 184.759 291.6 194.759 254.466 195.905 209 211 119 217 89.988 187.6 68.984 186.262 36 215 53 229 91 348 93 411 65 411 65 431 85 431"/></g><g id="route_1-3" data-name="route_1" class="cls-13"><polyline id="Route_1-4" data-name="Route 1" class="cls-14" points="640 178 735 165 741 152 826 113 890 178 874 203 850.846 188.558 843 131"/><polyline id="Route_1-5" data-name="Route 1" class="cls-10" points="640 178 735 165 741 152 826 113 890 178 874 203 850.846 188.558 843 133"/></g><g id="route_3-3" data-name="route_3" class="cls-13"><polyline id="Route_3-4" data-name="Route 3" class="cls-14" points="743 166 745 159 824 122 853 153 858 184 872 193 881 179 826 124 838 127"/><polyline id="Route_3-5" data-name="Route 3" class="cls-11" points="743 166 745 159 824 122 853 153 858 184 872 193 881 179 826 124 838 127"/></g><g id="route_11-3" data-name="route_11" class="cls-13"><polyline id="Route_11-4" data-name="Route 11" class="cls-14" points="1004 143 977 143 959 80 946 77 943 50 923 50 917 80 832 121"/><polyline id="Route_11-5" data-name="Route 11" class="cls-12" points="1004 143 977 143 959 80 946 77 943 50 923 50 917 80 830 122"/></g><g id="big_bear_otm" class="cls-13" data-name="big_bear_otm"><polyline class="cls-14" points="826 107 847 98 833 56 720 68 633 37 621 42 610 77 510 154 435 245 365 256 348.967 290.986 376 307 370 330 302 312 276 384 57 384 57 438 85 438"/><polyline id="BB_OTM-2" data-name="BB OTM" class="cls-6" points="826 107 847 98 833 56 720 68 633 37 621 42 610 77 510 154 435 245 365 256 348.967 290.986 376 307 370 330 302 312 276 384 57 384 57 438 85 438"/></g></g><g id="over"><text class="cls-15" transform="translate(580.655 217.726)">BIG BEAR LAKE</text><text class="cls-15" transform="translate(109.451 61.726)">LAKE ARROWHEAD</text><text class="cls-16" transform="translate(402.424 276.726)">RUNNING <tspan x="3.411" y="21.6">SPRINGS</tspan></text><text class="cls-17" transform="translate(47 474.847)">SAN BERNARDINO</text><text class="cls-18" transform="translate(971.8 169.312)">LAKE <tspan x="-5.592" y="19.2">ERWIN</tspan></text><text class="cls-16" transform="translate(65.87 155.897)">CRESTLINE</text><text class="cls-19" transform="translate(832.602 228.898)">MOONRIDGE</text><text class="cls-19" transform="translate(276.366 408.897)">HIGHLAND</text><circle class="cls-20" cx="86" cy="430" r="5"/><circle class="cls-21" cx="86" cy="440" r="5"/><circle class="cls-22" cx="304.707" cy="176.229" r="5" transform="matrix(0.777, -0.629, 0.629, 0.777, -42.999, 231.031)"/><circle class="cls-20" cx="311" cy="184" r="5" transform="matrix(0.777, -0.629, 0.629, 0.777, -46.487, 236.724)"/><circle class="cls-23" cx="317.293" cy="191.771" r="5" transform="matrix(0.777, -0.629, 0.629, 0.777, -49.976, 242.416)"/><circle class="cls-23" cx="420" cy="237" r="5"/><circle class="cls-21" cx="421" cy="248" r="5"/><circle class="cls-21" cx="818.713" cy="106.853" r="5" transform="translate(138.792 575.272) rotate(-42)"/><circle class="cls-24" cx="825.404" cy="114.284" r="5" transform="translate(135.538 581.658) rotate(-42)"/><circle class="cls-25" cx="832.096" cy="121.716" r="5" transform="translate(132.284 588.044) rotate(-42)"/><circle class="cls-26" cx="838.787" cy="129.147" r="5" transform="translate(129.03 594.43) rotate(-42)"/></g><g id="hovers"><polygon id="route_1-6" data-name="route_1" class="cls-27" points="596 175 628 219 736 176 743 158 823 120 815 110 772 121 714 132 682 142 596 175"/><polygon id="route_3-6" data-name="route_3" class="cls-28" points="842 133 861 128 941 103 946 89 937 55 928 55 921 84 837 125 842 133"/><polygon id="route_3-7" data-name="route_3" class="cls-29" points="736 176 743 158 824 122 835 132 881 179 872 193 838 140 758 186 736 176"/><polygon id="route_11-6" data-name="route_11" class="cls-28" points="833.093 127.491 921 83 926 54 939.763 54.871 953 110 961 175 1015 152 1004 59 947 37 895 37 866 80 865 91 861 100 828 120 833.093 127.491"/><polygon id="big_bear_otm-2" data-name="big_bear_otm" class="cls-28" points="810 100 818 107 861 100 856 41 789 37 645 12 547 57 503 107 436 229 426 242 345 251 232 331 99 377 99 392 162 406 334 412 382 369 517 266 548 208 558 138 593 96 675 66 736 72 792 77 818 78 810 100"/><polygon id="route_4-4" data-name="route_4" class="cls-28" points="383 83 411 88 400 143 350 197 371 216 406 223 426 228 426 242 366 247 300 232 284 208 312 195 325 176 383 83"/><polygon id="rim_otm-4" data-name="rim_otm" class="cls-28" points="317 176 319.526 184 306 198 279 208 155 232 105 227 81 251 102 343 99 399 101 421 99 435 65 431 65 399 81 396 73 331 30 230 25 212 40 199 49 199 68 183 92 185 120 214 160 212 201 203 237 197 276 192 296 189 317 176"/><polygon id="route_2-4" data-name="route_2" class="cls-28" points="4 167 40 199 49 199 68 183 92 185 121 208 132.5 212 176 208 217 197 265 192 296 189 317 176 304.707 165 216 167 165 179 99 165 54 165 15 146 4 167"/><polygon id="route_1-7" data-name="route_1" class="cls-27" points="831 209 895 218 908 158 871 159 896 169 874 198 853 193 850 169 831 169 831 209"/></g></svg>