<svg id="Layer_1" data-name="Layer 1" xmlns="http://www.w3.org/2000/svg" xmlns:xlink="http://www.w3.org/1999/xlink" viewBox="0 0 1024 503">
  <defs>
    <clipPath id="clip-path">
      <path d="M844.179,130.591l-.4.494a4.464,4.464,0,0,1-6.275.7L822.519,114.4a4.464,4.464,0,0,1-.7-6.275l.4-.495a4.465,4.465,0,0,1,6.275-.7l14.989,17.387A4.464,4.464,0,0,1,844.179,130.591Z" style="fill: none;stroke: #fff;stroke-miterlimit: 10;stroke-width: 1.5px"/>
    </clipPath>
  </defs>
  <title>marta-map</title>
  <g id="background">
    <path id="lake_arrowhead" data-name="lake arrowhead" d="M386.939,101.745q-.446,3.3-.892,6.59c-.332,1.117-.605,2.256-1.006,3.349-1.545,4.208-3.271,8.357-4.623,12.625a9.848,9.848,0,0,0,.043,4.855c.325,1.481.316,2.1-1.4,1.929-2.593-.254-5.22-.254-7.787-.654-1.264-.2-2.487-.81-.514-2.3,1.94-1.462,1.249-7.57-.893-8.709a3.268,3.268,0,0,0-2.674-.027,32.137,32.137,0,0,0-6.416,4.181c-1.385,1.27-1.91.8-2.684-.3-1.551-2.207-3.082-4.439-6.364-3.253a4.3,4.3,0,0,1-.356-1.074,17.06,17.06,0,0,1,.076-1.874,14.93,14.93,0,0,1-1.815.2,9.557,9.557,0,0,1-2.672-.2c-1.547-.466-2.987-1.446-4.55-1.67-5.228-.75-8.2,1.659-8.8,6.89-.065.565-.123,1.427.2,1.694,2.6,2.165.665,3.714-.71,5.208a3.939,3.939,0,0,0-.949,4.607c.142.354-.92,1.635-1.575,1.77a27.47,27.47,0,0,1-4.392.14c-2.411.1-3.321,1.4-3.17,3.771.134,2.1-.288,4.261.057,6.307a53.681,53.681,0,0,0,2.347,9.214c1.207,3.354,2.9,6.533,4.3,9.82a1.483,1.483,0,0,1-.515,1.147,2.53,2.53,0,0,1-1.434-.593c-2.052-1.852-4.014-3.806-6.1-5.613a2.534,2.534,0,0,0-2.019-.54c-2.054.633-3.87,1-5.741-.692-.327-.3-2.853.8-3.113,1.637-1.585,5.113-6.686,7.086-9.415,11.1a4.815,4.815,0,0,0-.732,2.988c.187,1.769.956,4.032-1.095,4.611a6.252,6.252,0,0,1-5.031-1.409c-2.265-2.087-4.258-3.888-7.641-2.933a6.59,6.59,0,0,1-3.007-.43c-1.415-.342-2.2-1.052-1.446-2.676.849-1.829.249-3.274-1.424-4.319-1.127-1.085-2.534-1.867-3.173-3.464a4.857,4.857,0,0,1-.539-3.124,3.009,3.009,0,0,1,.137-.613c.642-1.167,2.178-1.666,2.378-3.166-1.091-1.329-2.8-.89-4.154-1.469-.622-.267-.656.555-.83,1.012-.831,2.179-.1,4.491-.59,6.7a2.7,2.7,0,0,1-.208,1.24,1.221,1.221,0,0,1-1.049.657l-.321-.032c-2.71-1.155-5.6-2.019-8.078-3.548s-4.647-2.64-7.437-.887a5.2,5.2,0,0,1-2.551.434c-3.541.064-3.91.509-4.044,4.14a20.476,20.476,0,0,1-.922,3.955,1.865,1.865,0,0,1-.8.19l-.256-.111-.174-.217a18.247,18.247,0,0,0-2.94-2.117,7.707,7.707,0,0,0-3.8-.982c-1.81.2-1.444,1.811-1.208,3.118-.756.055-1.5.449-2.271.065l-.022-.031c-.075-.175-.168-.194-.282-.032l-.552.051c-1.436.53-3,1.071-4.408.455a3.12,3.12,0,0,0-4.162.908l-.924-.417a2.452,2.452,0,0,0-2.468,1.23l-1.243-.031c-.569-.137-.7-.7-1.036-1.062a9.134,9.134,0,0,0-5.467-.994c-.377.058-.708.149-1.007-.154l-.531-.087c-.493-.329-1.116.263-1.586-.224l-1.863.4c-.581.895.032,1.932-.34,2.851a6.91,6.91,0,0,0-.759,1.68c-.059.352.543.814.487,1.169-.17,1.086-.515,2.145-.792,3.214a8.412,8.412,0,0,1-1.241-2.53c-.34-3.106-3.008-4.574-4.734-6.568-1.205-1.391-.857-1.975.2-2.382,2.838-1.089,5.793-1.87,8.676-2.849a17.089,17.089,0,0,0,2.4-1.248c-.773-.461-1.552-.911-2.316-1.387-1.689-1.054-4.172-1.782-4.809-3.287-.537-1.268,1-3.481,1.795-5.194a1.9,1.9,0,0,1,1.65-.645c2.5.491,4.964,1.194,7.466,1.7a3.61,3.61,0,0,0,2.242-.264c2.462-1.31,4.864-2.736,7.258-4.169,4.544-2.719,5.041-7.219.553-9.989-5.055-3.122-6.839-8.185-9.465-12.873-.818-1.46-2.445-2.446-3.548-3.776a35.486,35.486,0,0,1-2.3-3.511,14.3,14.3,0,0,1,3.8.537c3.791,1.642,7.514,3.451,11.2,5.33a2.763,2.763,0,0,1,1.09,1.957c.413,4.165,2.86,6.545,6.532,8.1a35.842,35.842,0,0,1,5.465,3.022c1.749,1.138,2.924.364,4.334-.668.853-.624,2.294-1.248,3.138-.945,4.6,1.651,9.117,3.535,13.61,5.462,1.334.573,2.607,1.239,3.3-.521,1.507-3.852,4.572-3.606,7.648-2.948,1.664.357,2.135-.455,2.074-1.614-.054-1.02-.646-2.861-1.068-2.88-4.132-.192-6.25-2.639-8.234-5.941-1.752-2.916-4.986-3.859-8.393-4.018a14.66,14.66,0,0,1-4.453-.839c-1.338-.507-2.074-1.476-.422-2.745.5-.381.655-1.2.969-1.823a8.3,8.3,0,0,0-1.921-.689c-1.473-.152-3.328.814-3.62-1.964-.051-.484-2.514-.659-3.825-1.092-.5-.166-1.219-.6-1.285-1-.356-2.151-.029-4.479-2.6-5.733-.512-.25-.629-1.683-.614-2.565.038-2.148-.9-3.134-3.037-3.085a18.911,18.911,0,0,1-4.175-.128,4.38,4.38,0,0,1-2.145-1.616c-.119-.144.886-1.045,1.111-1.69a4.064,4.064,0,0,0,.34-2.508,5.739,5.739,0,0,0-6.805-3.048c-2.377.753-4.685,1.734-7.078,2.426a2.8,2.8,0,0,1-2.4-.388,28,28,0,0,1-3.842-5.765c-.223-.475,1.222-1.956,2.132-2.684,1.1-.881,3.464-1.415,3.492-2.166a12.556,12.556,0,0,0-1.439-5.9c-.639-1.258-2.244-2.01-3.36-3.05a2.625,2.625,0,0,1-.827-1.387c-.031-.206.771-.484,1.12-.809,1.206-1.121,2.369-2.287,3.57-3.414.339-.318.8-.846,1.117-.787a29.392,29.392,0,0,1,3.281.975,5.972,5.972,0,0,0-1.051,1.472,2.454,2.454,0,0,0-.043,1.86,37.591,37.591,0,0,0,4.121,4.86,3.72,3.72,0,0,0,2.561.435c2.269-.192,4.388-.468,5.527,2.3a2.877,2.877,0,0,0,2.571,1.038c3.979-1.1,7.792.407,11.619.386,3.282-.017,5.338-.189,7.071,3.289,1.171,2.35,3.98,3.992,6.291,5.616a6.562,6.562,0,0,0,3.9.753,36.809,36.809,0,0,1,15.7,2.3c.478.185,1.118.76,1.139,1.18.109,2.232,1.62,2.2,3.125,2a55.239,55.239,0,0,0,5.828-1.128c.432-.107.719-.8,1.072-1.223-2.085-1.737-.583-3.453.05-5.157.329-.886.751-1.737,1.131-2.6.319-.108.448.03.444.342-.327,2.566.818,4.323,2.974,5.594a46.578,46.578,0,0,1,3.929,2.614c.229.169.2.757.206,1.154.082,3.087,1.489,4.855,4.61,5.429,1.7.312,2.776.693,1.875,2.762-.145.332.633,1.523,1.082,1.583a61.192,61.192,0,0,0,8.713.712,4.1,4.1,0,0,0,2.8-1.883c2.21-3.651,5.529-5.721,9.272-7.455a21.3,21.3,0,0,0,6.048-3.909,6.469,6.469,0,0,0,1.873-4.786c-.177-1.166-2.176-2.373-3.611-2.966-3.995-1.649-7.885-.893-11.592,1.167a4.208,4.208,0,0,1-1.418.212c.022-.538-.15-1.211.108-1.585a5.972,5.972,0,0,1,1.868-1.81c4.063-2.284,6.647-5.411,6.478-10.352-.073-2.143.974-2.1,2.493-1.13,2.313,1.475,4.362,1.772,6.158-1.024,1.083-1.685,2.723-3.7,4.133-.021a2.651,2.651,0,0,0,1.06,1.1c1.126.723,2.3,1.367,3.458,2.043.242-1.037.517-2.067.718-3.112.473-2.458.953-4.614,2.987-6.686,1.854-1.889,2.255-5.2,3.328-7.866A17.233,17.233,0,0,1,354.357,56a7.522,7.522,0,0,0,1.218,1.289c3.179,2.076,1.448,4.748.982,7.307-.38,2.082.868,3.066,2.677,3.659a6.371,6.371,0,0,1,1.528,1.074,6.231,6.231,0,0,0-1.44.749c-.358.322-.837.95-.733,1.273.691,2.155,1.275,4.436,3.856,5.235,2.344.725,3.426,2.483,4.154,4.736a7.349,7.349,0,0,0,2.247,3.249,22.4,22.4,0,0,0,5.854,3.872C381.082,90.864,385.224,95.134,386.939,101.745Z" style="fill: #7a9fd3"/>
    <g id="big_bear_lake" data-name="big bear lake">
      <path d="M581.314,112.461l.213-.207c.144-.226.446-.16.618-.334l-.018.012a3.841,3.841,0,0,1,.305-.307l-.015.02c.167-.159.11-.439.31-.58l-.006.015c.562-.341,1.114-.707,1.66-1.065a3.194,3.194,0,0,0,1.76-2.28,2.753,2.753,0,0,1,.9-1.569l-.014,0a2.145,2.145,0,0,1,.3-.3l-.011.011c.15-.188.427-.135.586-.306l-.018.015c.091-.093.18-.188.268-.284,4.055-2.77,8.192-5.432,12.125-8.366,1.479-1.1,2.454-2.871,3.724-4.276.664-.733,1.751-1.2,2.162-2.023,1.557-3.135,5.207-.772,7.179-2.918a8.706,8.706,0,0,1,3.81-2.519c1.518-.419,3.254-.052,4.895-.028,3.635.361,7.267.759,10.907,1.074.143.012.314.065.424,0a4.937,4.937,0,0,1,4.225-.524.614.614,0,0,0,.712-.379c.619-1.809,2.521-2.044,3.748-3.1l-.017.009c.091-.1.183-.194.276-.29,2.723-3.11,2.394-4.585-1.369-6.36-1.116-.526-2.178-1.164-3.265-1.751-.259-.292-.561-.642-.438-1.013.459-1.38-.455-2.1-1.281-2.885a2.432,2.432,0,0,1-.777-2.59c.1-.343.35-.78-.1-1.032s-.657.2-.926.453c-1.4,1.294-2.317,1.347-3.579.216-.127-.308-.175-.8-.395-.9-3.517-1.5-1.831-4.817-2.589-7.27-.4-2.405.228-4.755.424-7.124a1.535,1.535,0,0,1,2.149-1.3c1.862,1.111,3.6.233,5.387.08a1.74,1.74,0,0,1,1.589.361l-.015-.017a1.623,1.623,0,0,0,2.026.551c.926-.347,1.507.181,1.576,1.106a11.783,11.783,0,0,0,.309,2.126,1.378,1.378,0,0,0,1.391,1.222c.727-.022,1.082-.514,1.272-1.172a11.286,11.286,0,0,0,.352-2.267c.088-1.116.643-1.832,1.852-1.7,1.128.128,2.2-.829,3.339-.139l-.027-.007c-.112.7-.166,1.415-.346,2.1-.787,2.992.579,5.294,3.45,6.34,1.483.54,3.439.9,3.331,3.3-.013.3,1,.892,1.562.924,2.293.131,4.613-.362,6.642,1.5.442.405,2.146-.569,3.269-.909.018-.06.037-.121.055-.182a3.1,3.1,0,0,1,.39-.429,1.763,1.763,0,0,1,.323-.241,1.481,1.481,0,0,1,.383-.155c.14-.021.278-.045.416-.074a1.871,1.871,0,0,1,2.337.487,2.768,2.768,0,0,0,1.224.726,3.942,3.942,0,0,1,2.282,1.867,6.154,6.154,0,0,0,1.763,1.857c2.126,1.557,2.475,1.558,4.34-.276a2.119,2.119,0,0,1,2.373-.536,7.415,7.415,0,0,1,3.883,2.583c1.48,2.236,3.877,2.645,6.2,3.194a3.45,3.45,0,0,0,2.181-.589,6.993,6.993,0,0,1,6.808.489c1.962,1.251,4.151,1.94,6.132,3.1.937.549,2.152.3,3.24.4a16.957,16.957,0,0,0,2.3.01c1.057-.044,1.534.359,1.632,1.482.168,1.917.051,3.829.116,5.4-.015-1.7.016-3.74,0-5.782a.7.7,0,0,1,.3-.572c2.876-.019,5.751-.047,8.627-.042.316,0,.828.108.917.311.96,2.188,2.156,1.056,3.687.632a16.061,16.061,0,0,1,5.664-.045,41.636,41.636,0,0,1,6.452,1.117c1.022.267,1.826,1.3,2.841,1.681a21.965,21.965,0,0,0,13.233.833c3.163-.746,5.322-2.67,7.822-4.389,1.105-.761,3.41.115,5.143.407,1.447.244,2.872,1.088,4.277,1.023,4.029-.188,8.046-.68,12.059-1.128.345-.038.706-.582.93-.967,2.182-3.752,5.979-5.3,9.6-7.089l.485-.014c.474-.228-.119-.921.477-1.1.711,1.5,2.026,1.217,3.281,1.118.344-.411.836-.335,1.288-.39.15-.02.3-.043.45-.073,1.572-.079,3.122.225,4.7.238a13.393,13.393,0,0,0,6.5-1.977c2.145-1.152,3.19-1.072,5.182.427a13.656,13.656,0,0,0,5.04,2.643,7.434,7.434,0,0,1,4.261,2.681A10.614,10.614,0,0,0,834.7,75.9a5.428,5.428,0,0,1,3.2,1.432c1.3,3.532,2.616,7.058,3.87,10.606.148.42.112,1.242-.133,1.388a1.771,1.771,0,0,1-1.528.007,2.547,2.547,0,0,0-3.865.945.517.517,0,0,1-.158.645,15.52,15.52,0,0,0-3.361,3.041,2.073,2.073,0,0,1-1.282.594,19.232,19.232,0,0,1-6.386-.214c-.391-.013-.469.267-.521.572a2.425,2.425,0,0,1-1.747,1.89,5.315,5.315,0,0,0-2.54,2.436,13.877,13.877,0,0,0-1.794,3.062,2.613,2.613,0,0,1-2.36,1.595c-2.39.21-4.393,1.518-6.654,2.05-1.752.413-3.464,1.026-5.254.039a2.621,2.621,0,0,0-2.449.112c-1.788.8-3.353,2.008-5.239,2.636-.933.311-1.484,1.3-2.188,2.011-1.33.941-2.839.58-4.3.593-.208-.007-.416-.034-.623-.059a2.226,2.226,0,0,1-.39-.05c-.638-.077-1.279-.012-1.917-.041-.124,0-.247-.012-.37-.023a2.1,2.1,0,0,1-.5-.185,2.237,2.237,0,0,1-.312-.15c-.152-.075-.3-.161-.454-.237a2.061,2.061,0,0,1-.315-.158,2.727,2.727,0,0,1-.454-.308c-.092-.09-.178-.184-.264-.28a9.984,9.984,0,0,1-3.894-4.769,8.6,8.6,0,0,0-2.363-3.68c-2.334-1.8-5.5-.476-7,1.76a3.348,3.348,0,0,1-.591.622c-1.64,1.468-1.7,2.1-.637,3.947a29.76,29.76,0,0,0,3,4.866,2.057,2.057,0,0,0,1.178,1.174A11.436,11.436,0,0,1,779.33,118a6.028,6.028,0,0,0,1.057,1.353,8.592,8.592,0,0,1,1.964,6.124,1.4,1.4,0,0,1-1.6,1.581,17.228,17.228,0,0,1-6.6.247c-1.124-.1-2.2.553-3.338.272a1.324,1.324,0,0,1-.395.052c-.324-.007-.627.154-.954.128-.244-.021-.467-.133-.708-.171a2.46,2.46,0,0,0-.691-.032c-.291,0-.566-.11-.856-.123-.449.106-.7.575-1.159.645a2.617,2.617,0,0,1-.718.006.5.5,0,0,0-.419.42c-.015.2-.046.412.16.554.11.039.212.083.318.127a1.4,1.4,0,0,0,1.278-.056,1.284,1.284,0,0,1,.347-.174,1.159,1.159,0,0,1,.389-.03,4.689,4.689,0,0,0,.774.132,4.1,4.1,0,0,1,1.006.1c.733.235.9,1.039,1.456,1.451,1,1.222.966,1.986-.236,2.849a17.741,17.741,0,0,1-3.412,1.8,1.489,1.489,0,0,1-1.63-.191,44.133,44.133,0,0,1-3.638-2.988c-1.573-1.775-2.705-1.886-4.668-.58a6.873,6.873,0,0,1-.318,1.2,7.8,7.8,0,0,1-.97,1.7c-.937,1.131-2.011,2.153-2.906,3.315a4.385,4.385,0,0,0-.405,1.665l-1.248-1.462-.027-.029c.032-1.23.1-2.46.066-3.688-.009-.294-.37-.577-.569-.865l-.8.787c-.069.9.46,1.866-.331,2.673l-.354,1.21c-.333-1.195-.73-2.624-1.134-4.052,0-.014-.119-.023-.131,0a1.22,1.22,0,0,0-.09.227,1.811,1.811,0,0,1-.039,1.408l-.888,4.585c-.264.206-.53.095-.8.007a1.67,1.67,0,0,1-.431-.239,3.118,3.118,0,0,1-.212-.246c-.7-.285-1.445-.861-2.1-.778-.718.09-2.688-1.554-2.133,1.171.105.513-.48,1.28-.942,1.728-.141.137-.935-.4-1.43-.625l-2.311-1.054c-2.1.889-4.162,1.851-6.184,2.9a1.1,1.1,0,0,1-.842-.006c-.419-.108-.557-.449-.669-.808a2.166,2.166,0,0,0-.166-.257,1.042,1.042,0,0,0-.216-.175,1.621,1.621,0,0,0-.245-.087s-.124-.012-.124-.012a1.057,1.057,0,0,0-.125.012.613.613,0,0,0-.225.133,1.325,1.325,0,0,0-.155.244c-.016.052-.034.1-.048.148a1.159,1.159,0,0,0,.066.654c.057.109.114.216.176.322a3.236,3.236,0,0,1,.206.325c.027.061.052.121.08.182a1.926,1.926,0,0,1-.147,1.388,1.212,1.212,0,0,1-.25.323,1.379,1.379,0,0,1-1.468.17c-.4-.163-.5-.956-.929-.722a5.987,5.987,0,0,0-1.78,1.37c-.238.288-.37.665-.732.849a3.425,3.425,0,0,1-1,.152c-.368-.03-.741-.212-1.1.039a1.417,1.417,0,0,1-.377.109,1.261,1.261,0,0,1-.771-.168,1.443,1.443,0,0,1-.348-.2,1.521,1.521,0,0,1-.274-.287c-.033-.055-.063-.113-.1-.169-.265-.417-.355-.967-.9-1.174a1.5,1.5,0,0,1-.538-1.121c-.228-2.113-1.032-2.841-3.193-2.918a2.137,2.137,0,0,1-1.379-.234,1.238,1.238,0,0,1-.206-1.345,3.216,3.216,0,0,0-.06-1.97c.023-1.5.123-2.956,1.465-3.986.379-.292.364-.873.667-1.245.192-.44.019-.8-.38-.426a9.065,9.065,0,0,1-3.716,1.7c-.711.228-.99.839-1.326,1.419-.568.979-1.069,2.175-2.423,2.117-1.549-.067-2.367-1.232-3.012-2.5-.13-.254-.236-.52-.375-.773-.527-1.344-.186-2.86-.883-4.187a3.03,3.03,0,0,0-1.5-1.635,8.674,8.674,0,0,1-2.861-2.345,2.37,2.37,0,0,1-.045-3.384c.435-.571,1.02-1.012,1.423-1.61.183-.343.232-.727-.245-.763-.627-.047-1.185-.415-1.824-.336a3.308,3.308,0,0,1-3.682-2.118,4.865,4.865,0,0,0-.4-.6c-.976-1.463-1.47-1.562-2.883-.576a2.228,2.228,0,0,1-.818.114c-1.435.24-2.809-.37-4.232-.307a1.8,1.8,0,0,1-.6.143c-.068-.008-.137-.02-.206-.028-.063-.024-.127-.051-.192-.075-1.143-1.225-2.27-.148-3.393.029a1.187,1.187,0,0,0-.017.3,1.359,1.359,0,0,0,.1.3,1.228,1.228,0,0,0,.36.321,1.713,1.713,0,0,1,.474.486.541.541,0,0,0,.4.217,1.647,1.647,0,0,1,1.273.875c.265-.026-.365.581.23.321a.984.984,0,0,1,.7.2,4.334,4.334,0,0,0,.732.582c1.725.919,2.784,2.581,4.246,3.794a8.294,8.294,0,0,0,2.681,2.684c.341.5.57,1.018.091,1.568a1.443,1.443,0,0,1-1.6.357,5.708,5.708,0,0,1-3.774-3.04,9.653,9.653,0,0,0-5.332-4.765c-.407-.171-.849-.276-1.089.283-.026.122-.049.245-.066.369a2.678,2.678,0,0,1-.273.872,1.717,1.717,0,0,1-.111.35,3.614,3.614,0,0,1-.26.5,1.534,1.534,0,0,1-.231.3,2.125,2.125,0,0,0-.315.485c-.164.454.131.842.17,1.262a1.515,1.515,0,0,1-1.05,1.688c-.781.289-1.121-.347-1.443-.872a3.341,3.341,0,0,1-.316-2.371,9.348,9.348,0,0,0,.182-1.563c0-1.694-.41-2.216-2.109-2.155a31.826,31.826,0,0,1-5.535-.719c-1.15-.158-2.289-.065-3.426-.188a22.982,22.982,0,0,1-2.27-1.227,2.345,2.345,0,0,0-2.282-.282c-1.561.589-2.728-.622-2.319-2.258.6-2.381-.007-3.65-2.239-4.688a7.333,7.333,0,0,1-1.23-.739c-1.685-1.23-3.406-.965-5.164-.234a2.51,2.51,0,0,0-1.762,2.852,1.412,1.412,0,0,1-.917,1.583c-.908.415-1.765.947-2.681,1.359-.678.306-1.338.779-1.373,1.515a1.765,1.765,0,0,0,1.157,1.54c.961.438,1.763.949,1.928,2.1.034.239.313.372.528.457,4.434,1.746,7.188,5.3,9.757,9.053a9.056,9.056,0,0,0,1.393,1.625,2.412,2.412,0,0,0,.364.107,4.571,4.571,0,0,0,1.306.011c.143,0,.283.007.426.008.715,0,1.428-.027,2.139.011,1.381.073,1.845.716,1.461,2.031a6.84,6.84,0,0,0-.206,1.4c0,.138-.008.28-.014.419-.717,1.008-.311,1.735.594,2.337a1.264,1.264,0,0,1,.2.363,1.415,1.415,0,0,1,.006.621c-.325,1.721-.227,1.825,1.49,1.513a7.258,7.258,0,0,1,3.506.547,33.393,33.393,0,0,1,4.376,2.128c.62.3,1.333.768,1.1,1.647-.221.847-.992.936-1.734.973-.143.007-.286.026-.429.025-2.335-.007-2.448.068-3.281,2.216-.524.669-.145,1.649-.773,2.283a2.616,2.616,0,0,0-.17.323,2.427,2.427,0,0,1-.178.319c-.029.054-.065.1-.094.158-.166.269-.272.567-.423.845a1.761,1.761,0,0,1-1.992.732l-.042-.016c-1.167-.28-.664.947-1.154,1.28-.216.312-.662.562-.611.944.195,1.469-.981,2.163-1.673,3.13a1.351,1.351,0,0,1-1.255.559c-1.71-.1-3.413.13-5.122.115a1.674,1.674,0,0,0-1.333.729c-1.2.924-2.438,1.658-4,.848.193-1.831.215-3.394-2.4-3.477-.547-.017-1.315-1.529-1.5-2.449a29.729,29.729,0,0,1-.271-4.551l-.03-.185c-.008-.252.074-.494.076-.744a2.669,2.669,0,0,1,.047-.367,1.543,1.543,0,0,0,.047-.721,1.911,1.911,0,0,1,.021-.37,4.692,4.692,0,0,0,.031-.481.429.429,0,0,0-.076-.212c0,.009-.1-.04-.1-.03a.47.47,0,0,0-.207.088.6.6,0,0,1-.23.112l-.13.012a21.115,21.115,0,0,1-1.833,2.484,4.715,4.715,0,0,1-1.642.7,2.181,2.181,0,0,1,.015-2.855,3.053,3.053,0,0,0,.665-1.56c.056-.379-.036-.7-.441-.767-.5-.078-1.135.177-1.429-.4a3.282,3.282,0,0,1-.087-2.089c.54-.928.175-2.064.673-3,.314-.861,1.549-1.782-.181-2.5-.431-.511-1.129-.433-1.649-.747a2.7,2.7,0,0,1-1.4-1.506,3.584,3.584,0,0,0-.149-.376,1.674,1.674,0,0,1-.129-.37,1.44,1.44,0,0,0-.571-1.143c-.952-1.045-2.33-1.219-3.543-1.723-.457-.189-.8.228-1.189.376-.492.186-1.118.569-1.471.092-1.2-1.615-2.642-1.019-4.09-.619a2.627,2.627,0,0,1-.351.117,1.418,1.418,0,0,0-.744.412c-.038.047-.081.087-.12.134a2.848,2.848,0,0,1-.246.28c-.087.175-.065-.073-.088.108-.308,2.453-2.093,3.124-4.155,3.477-.131.023-.237.152-.353.235-1.125.971-2.245,1.948-3.382,2.9-.158.133-.51.29-.589.222-3.483-2.993-6.829-2.079-10.134.317-.5-.019-.757-.378-.992-.741a2.871,2.871,0,0,0-3.484-1.247,8.791,8.791,0,0,1-3.421.229,2.979,2.979,0,0,0-2.449,1.874c-.294,1.056.329,1.6,1.167,2.019,1.884.942,3.348,2.567,5.392,3.266a1.379,1.379,0,0,1,.908,1.614,3.833,3.833,0,0,0,1.547,3.576,11.584,11.584,0,0,0,4.133,2.411,2.841,2.841,0,0,1,2.1,2.633l.277.278a.955.955,0,0,1,.562.553,9.762,9.762,0,0,1,2.144,2.337,14.853,14.853,0,0,1,.579,3.749l3.393,2.214-1.854,1.852c-2.149,1.636-4.124,3.663-7.166,3.328-.295-.033-.541-.507-.81-.776-.28-1.116,1.217-1.1,1.273-2,.034-.125.069-.25.1-.376.066-.711-.358-.762-.91-.718a2.92,2.92,0,0,0-1.683.683c-.973.791-1.589.685-2.436-.219a4.22,4.22,0,0,0-1.468-1.32,1.582,1.582,0,0,0-1.116-.142,3.917,3.917,0,0,1-2.711-.387c-1.124-2.676-3.793-3.968-5.5-6.124-1.714.209-3.492.051-5.041,1.089-1,.67-1.9.105-2.245-1.206-.466-1.793-.472-3.676-1.116-5.435a2.256,2.256,0,0,0-.672-1.216c-.868-.592-1.933-.3-2.87-.64-.514-.184-.859.211-1.061.706a6.5,6.5,0,0,0-.361,2.226,4.2,4.2,0,0,0-.255,1.971,23.124,23.124,0,0,1-.525,5.827c-.217,1.348-.682,2.6-2.305,2.946-.678.145-.868.823-1.1,1.41-.177.453-.428.919-.972.945a1.06,1.06,0,0,1-1.034-.859c-.471-1.659-2.061-2.635-2.558-4.271a.9.9,0,0,0-.374-.426c-.534-.371-1.5-.152-1.671-.924s.319-1.553.494-2.335a1.957,1.957,0,0,1,.211-.331c.135-.2.219-.347.021-.611-1.227-1.64-1.166-2.763.185-4.286a.362.362,0,0,1,.183-.192c0,.01-.121-.036-.123-.027a.6.6,0,0,1-.142.268c-.876.579-1.749-.218-2.67.033-.785.214-1.233.441-1.413,1.316-.4,1.947-.963,2.3-2.909,2.016-1-.145-2.177.173-2.834-.993-.077-.137-.263-.092-.368.017-.991,1.025-2.225.681-3.4.584-1-.082-1.992-.256-3-.311a1.389,1.389,0,0,1-1.455-1.591c.031-1.52-.009-1.549-1.521-1.216-.45.1-.968.021-1.364.4a5.726,5.726,0,0,0,.866,1.464,1.226,1.226,0,0,1-.343,1.775,1.177,1.177,0,0,1-1.787-.185,2.324,2.324,0,0,0-1.545-.885c-1.444-.4-2.353-1.763-3.818-2.182-.354-.1-.331-.648-.424-1.02-.218-.873-.724-1.087-1.483-.569a9.77,9.77,0,0,1-2.8,1.106c-.835.253-1.589.149-1.641-.955-.034-.711-.337-.878-1.007-.823-1.119.093-2.188-.8-3.348-.205l0,0q-1.565.845-3.188,1.568c-1.086.485-2.141.088-3.189-.122a.646.646,0,0,1-.524-.861c1.268-.959,2.526-1.933,3.81-2.871.726-.529,1.5-1,2.248-1.494.878-1.322,1.67-2.706,3.172-3.484a1.925,1.925,0,0,1,1.281-.409c2.348.366,2.35.349,3.3-1.816,1.925-2.252,3.6-4.81,5.857-6.657,1.718-1.405,4.187-1.878,6.3-2.825a23.281,23.281,0,0,0,2.532-1.425c1.192-.725,2.361-1.489,3.546-2.227a18.867,18.867,0,0,1,3.626-2.165,27.08,27.08,0,0,1,6.212-1.379c1.783-.157,2.815-.5,3.078-2.527.1-.794,1.333-1.444,2.049-2.159a1.311,1.311,0,0,1,.249-.227l.008.008c2.07-2.336,5.114-3.463,7.2-5.787l-.014.011C581.155,112.911,581.089,112.608,581.314,112.461Z" style="fill: #7a9fd3"/>
      <path d="M892.63,58.64l3.264.784c.749.569,1.714-.143,2.465.414l.641.815a20.574,20.574,0,0,0-.161,3.126c.2,2.089-1.278,2.047-2.647,2.48a16.494,16.494,0,0,0-3.238,1.879.975.975,0,0,1-.688.971c-1.12.394-2.04,1.15-3.108,1.632a3.344,3.344,0,0,1-.572.158c-.936.255-.457,1.016-.558,1.57a.825.825,0,0,1-1.011.556c-1.134-.43-1.088-1.448-1.186-2.391a2.957,2.957,0,0,0-.154-.339,2.618,2.618,0,0,0-.409-.583c-.032-.048-.064-.1-.1-.145-2.422-.066-4.848-.247-7.266-.167-2.859.094-5.71.442-8.568.593-.282.015-.795-.536-.852-.882a6.165,6.165,0,0,0-.53-2.434c-.141,2.2-.336,4.4-.407,6.6-.057,1.812.124,3.637-.023,5.438-.028.349-1.124.926-1.663.861-2.02-.244-4.014-.71-6.017-1.093l-.183.054a4.165,4.165,0,0,1-1.127.115,4.348,4.348,0,0,1-.469.056,1.83,1.83,0,0,0-.4.128,2.055,2.055,0,0,1-.241.149,1.251,1.251,0,0,1-.4.189.313.313,0,0,1-.273-.095,28.978,28.978,0,0,1-2.719,2.41c-2.459,1.7-4.99,3.3-7.5,4.934-.158.1-.393.12-.511.25-2.608,2.871-3.267.7-3.983-1.5-.856-2.633-1.776-5.244-2.668-7.865a1.692,1.692,0,0,1,1.568-.828c.43-.039.864-.013,1.293-.044,1.917-.141,3.86-.2,5.011-2.159a2.538,2.538,0,0,1,1.126-.877,15.039,15.039,0,0,0,5.751-5.676,10.807,10.807,0,0,1,5.675-4.39,5.737,5.737,0,0,1,5.582.757c2.261,1.628,4.9,1.686,7.437,1.542a6.139,6.139,0,0,0,5.252-4.2c1.184-2.982,3.451-3.978,6.277-4.507,1.55-.29,2.787.522,4.165.828a2.771,2.771,0,0,0,1.715.076C891.138,57.779,892.184,57.322,892.63,58.64Z" style="fill: #7a9fd3"/>
    </g>
    <g style="opacity: 0.13">
      <path d="M402.871,484.726l.936-12.132H406l1.62,4.427q.432,1.134.863,2.4t.649,1.971l.234.7q.828-2.448,1.818-5.077l1.692-4.427h2.2l1.115,12.132h-1.836l-.431-4.752-.378-4.861q-.81,2.287-1.765,4.861l-1.691,4.517h-1.458l-1.638-4.517-1.639-4.788q0,.792-.288,4.788l-.359,4.752Z"/>
      <path d="M426.685,484.726l-.955-2.97h-4.9l-.973,2.97H417.9l4.2-12.132h2.429l4.141,12.132Zm-5.346-4.518h3.888l-.2-.612q-.684-2.124-1.115-3.52t-.522-1.736L423.3,474q-.2.846-1.764,5.6Z"/>
      <path d="M430.537,472.594h3.474a4.754,4.754,0,0,1,3.311,1.106,3.65,3.65,0,0,1,1.225,2.835,3.556,3.556,0,0,1-1.234,2.809,4.674,4.674,0,0,1-3.194,1.08h-1.728v4.3h-1.854Zm1.854,6.3h1.584a2.825,2.825,0,0,0,2.006-.649,2.23,2.23,0,0,0,.694-1.71,2.288,2.288,0,0,0-.7-1.764,2.9,2.9,0,0,0-2.035-.647h-1.547Z"/>
      <path d="M444.864,484.726V472.594h2.2l2.988,5.076q.828,1.422,1.5,2.628t.927,1.691l.251.5q-.106-1.638-.107-4.805v-5.094h1.854v12.132h-2.2l-3.007-5.058q-.81-1.368-1.484-2.583t-.945-1.756l-.27-.521q.144,1.8.144,4.841v5.077Z"/>
      <path d="M456.618,478.605a6.6,6.6,0,0,1,1.512-4.536,5.7,5.7,0,0,1,8.136-.008,7.654,7.654,0,0,1-.009,9.1,5.672,5.672,0,0,1-8.118,0A6.6,6.6,0,0,1,456.618,478.605Zm2.907-3.3a5.174,5.174,0,0,0-.963,3.3,5.117,5.117,0,0,0,.99,3.313,3.508,3.508,0,0,0,5.31.018,5.239,5.239,0,0,0,.954-3.331,5.172,5.172,0,0,0-.962-3.311,3.233,3.233,0,0,0-2.674-1.206A3.2,3.2,0,0,0,459.525,475.3Z"/>
      <path d="M477.191,472.594v1.548h-3.185v10.584h-1.854V474.142h-3.168v-1.548Z"/>
      <path d="M490.619,472.594v1.548h-3.185v10.584H485.58V474.142h-3.168v-1.548Z"/>
      <path d="M491.844,478.605a6.6,6.6,0,0,1,1.511-4.536,5.7,5.7,0,0,1,8.136-.008,7.654,7.654,0,0,1-.009,9.1,5.672,5.672,0,0,1-8.118,0A6.6,6.6,0,0,1,491.844,478.605Zm2.907-3.3a6.092,6.092,0,0,0,.026,6.615,3.509,3.509,0,0,0,5.311.018,5.239,5.239,0,0,0,.954-3.331,5.167,5.167,0,0,0-.963-3.311,3.231,3.231,0,0,0-2.674-1.206A3.2,3.2,0,0,0,494.751,475.3Z"/>
      <path d="M516.107,473.079v1.837a5.035,5.035,0,0,0-2.736-.757,2.476,2.476,0,0,0-1.557.442,1.4,1.4,0,0,0-.567,1.161,1.386,1.386,0,0,0,.559,1.152,8.4,8.4,0,0,0,1.71.936c.5.215.9.4,1.178.557a8.064,8.064,0,0,1,.972.657,2.631,2.631,0,0,1,.811,1.008,3.282,3.282,0,0,1,.26,1.342,3.071,3.071,0,0,1-1.133,2.52,4.519,4.519,0,0,1-2.935.918,6.433,6.433,0,0,1-3.312-.775v-1.926a5.356,5.356,0,0,0,3.294,1.063,2.445,2.445,0,0,0,1.566-.459,1.533,1.533,0,0,0,.576-1.27,1.346,1.346,0,0,0-.342-.89,2.482,2.482,0,0,0-.738-.613q-.4-.205-1.188-.566c-.312-.145-.531-.246-.657-.307s-.333-.168-.621-.324a4.733,4.733,0,0,1-.639-.4c-.138-.109-.309-.258-.513-.451a1.92,1.92,0,0,1-.441-.576,4.978,4.978,0,0,1-.252-.675,2.873,2.873,0,0,1-.117-.836,2.969,2.969,0,0,1,1.125-2.449,4.515,4.515,0,0,1,2.907-.9A6.186,6.186,0,0,1,516.107,473.079Z"/>
      <path d="M527.7,473.1v1.818a6.715,6.715,0,0,0-1.43-.6,6.469,6.469,0,0,0-1.63-.17,4.085,4.085,0,0,0-3.033,1.233,5.053,5.053,0,0,0-.009,6.561,4.272,4.272,0,0,0,3.186,1.223,4.724,4.724,0,0,0,2.934-.9v1.872a5.573,5.573,0,0,1-3.1.737,6.347,6.347,0,0,1-4.436-10.71,5.98,5.98,0,0,1,4.4-1.727A6.269,6.269,0,0,1,527.7,473.1Z"/>
      <path d="M537.851,484.726l-.955-2.97H532l-.973,2.97h-1.962l4.195-12.132h2.429l4.141,12.132Zm-5.346-4.518h3.888l-.2-.612q-.684-2.124-1.115-3.52t-.522-1.736l-.09-.342q-.2.846-1.764,5.6Z"/>
      <path d="M543.557,483.088h4.967v1.638H541.7V472.594h1.854Z"/>
      <path d="M552.2,483.178h5.149v1.548h-7V472.594h6.911v1.548H552.2v3.744h4.483v1.548H552.2Z"/>
    </g>
    <g style="opacity: 0.25">
      <path d="M515.106,335.1v2.195a5.5,5.5,0,0,0-2.879-.81,2.076,2.076,0,0,0-1.324.379,1.212,1.212,0,0,0,.036,1.952,8.439,8.439,0,0,0,1.54.855c.479.217.87.406,1.169.568a6.418,6.418,0,0,1,.982.675,2.717,2.717,0,0,1,.792,1.035,3.437,3.437,0,0,1,.261,1.377,3.181,3.181,0,0,1-1.162,2.583,4.621,4.621,0,0,1-3.05.963,6.77,6.77,0,0,1-3.4-.774v-2.323a5.663,5.663,0,0,0,3.385,1.117,2.065,2.065,0,0,0,1.332-.406,1.325,1.325,0,0,0,.5-1.088,1.284,1.284,0,0,0-.126-.576,1.435,1.435,0,0,0-.514-.5c-.257-.168-.456-.288-.593-.359s-.423-.205-.856-.4c-.119-.06-.21-.1-.269-.126-.445-.205-.8-.388-1.08-.549a6.414,6.414,0,0,1-.9-.657,2.635,2.635,0,0,1-.728-.99,3.354,3.354,0,0,1-.243-1.314,3.049,3.049,0,0,1,1.143-2.485,4.643,4.643,0,0,1,3.032-.936A6.78,6.78,0,0,1,515.106,335.1Z"/>
      <path d="M525.619,346.726l-.864-2.754h-4.59l-.864,2.754h-2.376l4.1-12.132h2.934l4.1,12.132Zm-4.86-4.608h3.42l-.162-.54q-.614-1.944-1-3.267t-.477-1.665l-.072-.36q-.162.9-1.548,5.31Z"/>
      <path d="M529.812,346.726V334.594h2.575l2.916,5.057q.719,1.242,1.287,2.313t.764,1.521l.2.451q-.144-1.5-.144-4.285v-5.057h2.285v12.132H537.1l-2.953-5.04q-.7-1.188-1.268-2.277t-.783-1.576l-.216-.5a38.937,38.937,0,0,1,.2,4.337v5.059Z"/>
      <path d="M546.66,334.594h4.3a4.521,4.521,0,0,1,3.024.918,2.973,2.973,0,0,1,1.08,2.376,2.8,2.8,0,0,1-.54,1.718,2.521,2.521,0,0,1-1.385.964,3.032,3.032,0,0,1,1.6.945,2.814,2.814,0,0,1,.63,1.935,3.045,3.045,0,0,1-1.008,2.358,3.994,3.994,0,0,1-2.79.918H546.66Zm2.269,1.854v3.258H550.3a2.924,2.924,0,0,0,1.836-.486,1.521,1.521,0,0,0,.611-1.242,1.359,1.359,0,0,0-.513-1.116,2.44,2.44,0,0,0-1.556-.414Zm0,8.424h1.943q2.178,0,2.179-1.656,0-1.692-2.269-1.693h-1.853Z"/>
      <path d="M559.6,344.872h4.95v1.854h-7.237V334.594h7.164v1.854H559.6v3.294h4.337v1.836H559.6Z"/>
      <path d="M573.085,346.726,570.33,342.3h-1.241v4.429H566.82V334.594h3.744a4.73,4.73,0,0,1,3.249,1.044,3.537,3.537,0,0,1,1.179,2.79,3.861,3.861,0,0,1-.63,2.187,3.653,3.653,0,0,1-1.674,1.323l3.115,4.788Zm-4-10.26v3.96H570.6a2.108,2.108,0,0,0,1.566-.531,2.027,2.027,0,0,0,.521-1.485,1.856,1.856,0,0,0-.548-1.44,2.25,2.25,0,0,0-1.576-.5Z"/>
      <path d="M577.422,346.726V334.594H580l2.916,5.057q.72,1.242,1.287,2.313t.765,1.521l.2.451q-.144-1.5-.143-4.285v-5.057H587.3v12.132h-2.592l-2.952-5.04q-.7-1.188-1.269-2.277t-.783-1.576l-.216-.5a38.937,38.937,0,0,1,.2,4.337v5.059Z"/>
      <path d="M597.744,346.726l-.864-2.754h-4.59l-.864,2.754H589.05l4.1-12.132h2.934l4.1,12.132Zm-4.86-4.608h3.42l-.162-.54q-.614-1.944-1-3.267t-.477-1.665l-.072-.36q-.162.9-1.548,5.31Z"/>
      <path d="M608.2,346.726l-2.755-4.429h-1.241v4.429h-2.268V334.594h3.744a4.73,4.73,0,0,1,3.249,1.044,3.539,3.539,0,0,1,1.178,2.79,3.854,3.854,0,0,1-.63,2.187,3.651,3.651,0,0,1-1.673,1.323l3.114,4.788Zm-4-10.26v3.96h1.512a2.106,2.106,0,0,0,1.566-.531,2.028,2.028,0,0,0,.522-1.485,1.857,1.857,0,0,0-.549-1.44,2.248,2.248,0,0,0-1.575-.5Z"/>
      <path d="M612.539,334.594h3.96a6.118,6.118,0,0,1,4.446,1.674,5.636,5.636,0,0,1,1.728,4.23A6.184,6.184,0,0,1,621,345.006a5.989,5.989,0,0,1-4.5,1.72h-3.96Zm2.322,10.241h1.6a3.57,3.57,0,0,0,2.9-1.178,4.754,4.754,0,0,0,.991-3.159,4.037,4.037,0,0,0-1.054-2.872,3.742,3.742,0,0,0-2.87-1.125h-1.567Z"/>
      <path d="M624.833,346.726V334.594H627.1v12.132Z"/>
      <path d="M629.765,346.726V334.594h2.574l2.916,5.057q.719,1.242,1.287,2.313t.765,1.521l.2.451q-.144-1.5-.144-4.285v-5.057h2.285v12.132h-2.591l-2.952-5.04q-.7-1.188-1.269-2.277t-.783-1.576l-.216-.5a38.937,38.937,0,0,1,.2,4.337v5.059Z"/>
      <path d="M641.663,340.624a6.481,6.481,0,0,1,1.557-4.537,5.975,5.975,0,0,1,8.361-.008,7.388,7.388,0,0,1-.01,9.063,5.942,5.942,0,0,1-8.342,0A6.43,6.43,0,0,1,641.663,340.624Zm2.43,0a4.682,4.682,0,0,0,.9,3.023,3.172,3.172,0,0,0,4.824.01,5.671,5.671,0,0,0,0-6.075,3.183,3.183,0,0,0-4.841,0A4.779,4.779,0,0,0,644.093,340.624Z"/>
      <path d="M506.539,368.326V356.194h2.574l2.916,5.057q.72,1.244,1.287,2.313t.765,1.521l.2.451q-.143-1.494-.143-4.285v-5.057h2.285v12.132h-2.592l-2.952-5.04q-.7-1.188-1.269-2.277t-.783-1.575l-.216-.5a38.911,38.911,0,0,1,.2,4.338v5.058Z"/>
      <path d="M526.861,368.326,526,365.572h-4.59l-.864,2.754h-2.376l4.1-12.132h2.934l4.1,12.132ZM522,363.718h3.42l-.162-.54q-.612-1.944-1-3.267t-.477-1.665l-.072-.36q-.16.9-1.548,5.31Z"/>
      <path d="M538.705,356.194v1.872h-3.078v10.26h-2.286v-10.26h-3.078v-1.872Z"/>
      <path d="M540.559,368.326V356.194h2.267v12.132Z"/>
      <path d="M545.005,362.224a6.473,6.473,0,0,1,1.557-4.536,5.976,5.976,0,0,1,8.361-.009,7.388,7.388,0,0,1-.01,9.063,5.943,5.943,0,0,1-8.343,0A6.428,6.428,0,0,1,545.005,362.224Zm2.43,0a4.681,4.681,0,0,0,.9,3.024,3.173,3.173,0,0,0,4.824.009,5.671,5.671,0,0,0,0-6.075,3.184,3.184,0,0,0-4.842,0A4.785,4.785,0,0,0,547.435,362.224Z"/>
      <path d="M558.5,368.326V356.194h2.574l2.916,5.057q.72,1.244,1.287,2.313t.765,1.521l.2.451q-.144-1.494-.143-4.285v-5.057h2.285v12.132h-2.592l-2.952-5.04q-.7-1.188-1.269-2.277t-.783-1.575l-.216-.5a38.944,38.944,0,0,1,.2,4.338v5.058Z"/>
      <path d="M578.826,368.326l-.864-2.754h-4.59l-.864,2.754h-2.376l4.1-12.132h2.934l4.1,12.132Zm-4.86-4.608h3.42l-.162-.54q-.614-1.944-1-3.267t-.477-1.665l-.072-.36q-.162.9-1.548,5.31Z"/>
      <path d="M585.288,366.31h4.733v2.016h-7V356.194h2.268Z"/>
      <path d="M603.306,358.048h-4.825v3.582h4.212v1.854h-4.212v4.842H596.2V356.194h7.111Z"/>
      <path d="M604.691,362.224a6.477,6.477,0,0,1,1.557-4.536,5.976,5.976,0,0,1,8.361-.009,7.39,7.39,0,0,1-.009,9.063,5.943,5.943,0,0,1-8.343,0A6.428,6.428,0,0,1,604.691,362.224Zm2.43,0a4.681,4.681,0,0,0,.9,3.024,3.173,3.173,0,0,0,4.824.009,5.671,5.671,0,0,0,0-6.075,3.184,3.184,0,0,0-4.842,0A4.779,4.779,0,0,0,607.121,362.224Z"/>
      <path d="M624.455,368.326,621.7,363.9h-1.241v4.429H618.19V356.194h3.745a4.734,4.734,0,0,1,3.249,1.044,3.541,3.541,0,0,1,1.178,2.79,3.854,3.854,0,0,1-.63,2.187,3.638,3.638,0,0,1-1.673,1.323l3.114,4.788Zm-4-10.26v3.96h1.512a2.108,2.108,0,0,0,1.566-.531,2.028,2.028,0,0,0,.522-1.485,1.857,1.857,0,0,0-.549-1.44,2.248,2.248,0,0,0-1.575-.5Z"/>
      <path d="M631.078,366.472h4.95v1.854h-7.236V356.194h7.164v1.854h-4.878v3.294h4.338v1.836h-4.338Z"/>
      <path d="M645.046,356.7v2.2a5.506,5.506,0,0,0-2.88-.811,2.073,2.073,0,0,0-1.323.379,1.211,1.211,0,0,0,.036,1.953,8.547,8.547,0,0,0,1.539.855c.479.216.87.405,1.17.567a6.437,6.437,0,0,1,.981.675,2.7,2.7,0,0,1,.792,1.035,3.437,3.437,0,0,1,.261,1.377,3.184,3.184,0,0,1-1.161,2.583,4.622,4.622,0,0,1-3.051.963,6.764,6.764,0,0,1-3.4-.774v-2.322a5.664,5.664,0,0,0,3.385,1.116,2.067,2.067,0,0,0,1.332-.406,1.325,1.325,0,0,0,.5-1.088,1.284,1.284,0,0,0-.126-.576,1.426,1.426,0,0,0-.514-.5c-.258-.168-.456-.289-.594-.36s-.423-.2-.855-.4c-.119-.06-.21-.1-.27-.126-.444-.2-.8-.388-1.08-.549a6.469,6.469,0,0,1-.9-.657,2.627,2.627,0,0,1-.729-.99,3.354,3.354,0,0,1-.243-1.314,3.048,3.048,0,0,1,1.144-2.484,4.634,4.634,0,0,1,3.032-.936A6.783,6.783,0,0,1,645.046,356.7Z"/>
      <path d="M655.271,356.194v1.872h-3.079v10.26h-2.286v-10.26h-3.078v-1.872Z"/>
    </g>
  </g>
  <g id="routes">
    <polyline points="831 111 852 102 833 56 720 68 633 37 621 42 610 77 510 154 435 245 365 256 348.967 290.986 376 307 370 330 302 312 276 384 57 384 57 438 85 438" style="fill: none;stroke: #fff;stroke-linecap: round;stroke-linejoin: round;stroke-width: 11px"/>
    <polyline points="396 93 387 131 320 189 306 198 318 217 392 242 419.922 237.937" style="fill: none;stroke: #fff;stroke-linecap: round;stroke-linejoin: round;stroke-width: 11px"/>
    <polyline points="305 179 291 187 213 187 171 205 122 208 93 179 66 178 49 193 15 162" style="fill: none;stroke: #fff;stroke-linecap: round;stroke-linejoin: round;stroke-width: 11px"/>
    <polyline points="311.6 184.759 291.6 194.759 254.466 195.905 209 211 119 217 89.988 187.6 68.984 186.262 36 215 53 229 91 348 93 411 65 411 65 431 85 431" style="fill: none;stroke: #fff;stroke-linecap: round;stroke-linejoin: round;stroke-width: 11px"/>
    <polyline id="Route_1" data-name="Route 1" points="640 178 735 165 741 152 826 113 890 178 874 203 850.846 188.558 844 145" style="fill: none;stroke: #fff;stroke-linecap: round;stroke-linejoin: round;stroke-width: 11px"/>
    <polyline id="Route_3" data-name="Route 3" points="743 166 745 159 824 122 853 153 858 184 872 193 881 179 826 124 838 127" style="fill: none;stroke: #fff;stroke-linecap: round;stroke-linejoin: round;stroke-width: 11px"/>
    <polyline id="Route_11" data-name="Route 11" points="1004 143 977 143 959 80 946 77 943 50 923 50 917 84 829 120" style="fill: none;stroke: #fff;stroke-linecap: round;stroke-linejoin: round;stroke-width: 11px"/>
    <polyline id="Big_Bear_OTM" data-name="Big Bear OTM" points="826 113 852 102 833 56 720 68 633 37 621 42 610 77 510 154 435 245 365 256 348.967 290.986 376 307 370 330 302 312 276 384 57 384 57 438 85 438" style="fill: none;stroke: #f3630f;stroke-linecap: round;stroke-linejoin: round;stroke-width: 8px"/>
    <polyline id="Route_4" data-name="Route 4" points="396 93 387 131 320 189 306 198 318 217 392 242 419.922 237.937" style="fill: none;stroke: #589446;stroke-linecap: round;stroke-linejoin: round;stroke-width: 8px"/>
    <polyline id="Route_2" data-name="Route 2" points="305 179 291 187 213 187 171 205 122 208 93 179 66 178 49 193 15 162" style="fill: none;stroke: #970029;stroke-linecap: round;stroke-linejoin: round;stroke-width: 8px"/>
    <polyline id="RIM_OTM" data-name="RIM OTM" points="311.6 184.759 291.6 194.759 254.466 195.905 209 211 119 217 89.988 187.6 68.984 186.262 36 215 53 229 91 348 93 411 65 411 65 431 85 431" style="fill: none;stroke: #32619b;stroke-linecap: round;stroke-linejoin: round;stroke-width: 8px"/>
    <polyline id="Route_1-2" data-name="Route 1" points="640 178 735 165 741 152 826 113 890 178 874 203 850.846 188.558 844 145" style="fill: none;stroke: #993788;stroke-linecap: round;stroke-linejoin: round;stroke-width: 8px"/>
    <polyline id="Route_3-2" data-name="Route 3" points="743 166 745 159 824 122 853 153 858 184 872 193 881 179 826 124 833 120" style="fill: none;stroke: #009992;stroke-linecap: round;stroke-linejoin: round;stroke-width: 8px"/>
    <polyline id="Route_11-2" data-name="Route 11" points="1004 143 977 143 959 80 946 77 943 50 923 50 917 84 832 119" style="fill: none;stroke: #aac909;stroke-linecap: round;stroke-linejoin: round;stroke-width: 8px"/>
  </g>
  <g id="route-highlights">
    <g id="route_4-2" data-name="route_4" style="opacity: 0">
      <polyline points="396 93 387 131 320 189 306 198 318 217 392 242 419.922 237.937" style="fill: none;stroke: #fff;stroke-linecap: round;stroke-linejoin: round;stroke-width: 16px"/>
      <polyline id="Route_4-3" data-name="Route 4" points="396 93 387 131 320 189 306 198 318 217 392 242 419.922 237.937" style="fill: none;stroke: #589446;stroke-linecap: round;stroke-linejoin: round;stroke-width: 8px"/>
    </g>
    <g id="route_2-2" data-name="route_2" style="opacity: 0">
      <polyline points="305 179 291 187 213 187 171 205 122 208 93 179 66 178 49 193 15 162" style="fill: none;stroke: #fff;stroke-linecap: round;stroke-linejoin: round;stroke-width: 16px"/>
      <polyline id="Route_2-3" data-name="Route 2" points="305 179 291 187 213 187 171 205 122 208 93 179 66 178 49 193 15 162" style="fill: none;stroke: #970029;stroke-linecap: round;stroke-linejoin: round;stroke-width: 8px"/>
    </g>
    <g id="rim_otm-2" data-name="rim_otm" style="opacity: 0">
      <polyline points="311.6 184.759 291.6 194.759 254.466 195.905 209 211 119 217 89.988 187.6 68.984 186.262 36 215 53 229 91 348 93 411 65 411 65 431 85 431" style="fill: none;stroke: #fff;stroke-linecap: round;stroke-linejoin: round;stroke-width: 16px"/>
      <polyline id="RIM_OTM-3" data-name="RIM OTM" points="311.6 184.759 291.6 194.759 254.466 195.905 209 211 119 217 89.988 187.6 68.984 186.262 36 215 53 229 91 348 93 411 65 411 65 431 85 431" style="fill: none;stroke: #32619b;stroke-linecap: round;stroke-linejoin: round;stroke-width: 8px"/>
    </g>
    <g id="route_1-3" data-name="route_1" style="opacity: 0">
      <polyline id="Route_1-4" data-name="Route 1" points="640 178 735 165 741 152 826 113 890 178 874 203 850.846 188.558 843 131" style="fill: none;stroke: #fff;stroke-linecap: round;stroke-linejoin: round;stroke-width: 16px"/>
      <polyline id="Route_1-5" data-name="Route 1" points="640 178 735 165 741 152 826 113 890 178 874 203 850.846 188.558 843 133" style="fill: none;stroke: #993788;stroke-linecap: round;stroke-linejoin: round;stroke-width: 8px"/>
    </g>
    <g id="route_3-3" data-name="route_3" style="opacity: 0">
      <polyline id="Route_3-4" data-name="Route 3" points="743 166 745 159 824 122 853 153 858 184 872 193 881 179 826 124 833 120" style="fill: none;stroke: #fff;stroke-linecap: round;stroke-linejoin: round;stroke-width: 16px"/>
      <polyline id="Route_3-5" data-name="Route 3" points="743 166 745 159 824 122 853 153 858 184 872 193 881 179 826 124 830 122" style="fill: none;stroke: #009992;stroke-linecap: round;stroke-linejoin: round;stroke-width: 8px"/>
    </g>
    <g id="route_11-3" data-name="route_11" style="opacity: 0">
      <polyline id="Route_11-4" data-name="Route 11" points="1007 141 980 141 962 78 949 75 946 48 926 48 916 84 834 118" style="fill: none;stroke: #fff;stroke-linecap: round;stroke-linejoin: round;stroke-width: 16px"/>
      <polyline id="Route_11-5" data-name="Route 11" points="1007 141 980 141 962 78 949 75 946 48 926 48 916 84 833 119" style="fill: none;stroke: #aac909;stroke-linecap: round;stroke-linejoin: round;stroke-width: 8px"/>
    </g>
    <g id="big_bear_otm-2" data-name="big_bear_otm" style="opacity: 0">
      <polyline points="830 111 851 102 833 56 720 68 633 37 621 42 610 77 510 154 435 245 365 256 348.967 290.986 376 307 370 330 302 312 276 384 57 384 57 438 85 438" style="fill: none;stroke: #fff;stroke-linecap: round;stroke-linejoin: round;stroke-width: 16px"/>
      <polyline id="BB_OTM" data-name="BB OTM" points="830 111 851 102 833 56 720 68 633 37 621 42 610 77 510 154 435 245 365 256 348.967 290.986 376 307 370 330 302 312 276 384 57 384 57 438 85 438" style="fill: none;stroke: #f3630f;stroke-linecap: round;stroke-linejoin: round;stroke-width: 8px"/>
    </g>
  </g>
  <g id="over">
    <g>
      <path d="M581.969,205.594h3.978a4.644,4.644,0,0,1,3.006.89,3.049,3.049,0,0,1,.531,4.114,2.521,2.521,0,0,1-1.449.972,2.89,2.89,0,0,1,1.664.918,2.816,2.816,0,0,1,.676,1.98,3.053,3.053,0,0,1-.981,2.348,3.911,3.911,0,0,1-2.763.91h-4.662Zm1.853,1.53v3.726H585.5a3.087,3.087,0,0,0,2.008-.549,1.778,1.778,0,0,0,.656-1.431,1.564,1.564,0,0,0-.584-1.261,2.736,2.736,0,0,0-1.773-.485Zm0,9.072H586.2q2.286,0,2.285-1.89a1.752,1.752,0,0,0-.621-1.431,2.841,2.841,0,0,0-1.844-.513h-2.2Z"/>
      <path d="M592.57,217.726V205.594h1.836v12.132Z"/>
      <path d="M606.935,210.8v5.814h-.019l.019.126a6.513,6.513,0,0,1-3.924,1.135,6.324,6.324,0,0,1-4.581-1.674,6.025,6.025,0,0,1-1.737-4.554,5.981,5.981,0,0,1,6.209-6.265,7.032,7.032,0,0,1,3.529.811V208.1a6.371,6.371,0,0,0-3.456-.972,4.164,4.164,0,0,0-3.141,1.242,5.136,5.136,0,0,0-.018,6.57,4.334,4.334,0,0,0,3.248,1.206,5.388,5.388,0,0,0,2.053-.4V212.4H602.65v-1.6Z"/>
      <path d="M613.864,205.594h3.978a4.644,4.644,0,0,1,3.006.89,3.049,3.049,0,0,1,.531,4.114,2.514,2.514,0,0,1-1.449.972,2.9,2.9,0,0,1,1.666.918,2.825,2.825,0,0,1,.675,1.98,3.054,3.054,0,0,1-.982,2.348,3.908,3.908,0,0,1-2.763.91h-4.662Zm1.855,1.53v3.726h1.674a3.079,3.079,0,0,0,2.006-.549,1.774,1.774,0,0,0,.658-1.431,1.566,1.566,0,0,0-.586-1.261,2.736,2.736,0,0,0-1.773-.485Zm0,9.072h2.375q2.286,0,2.287-1.89a1.752,1.752,0,0,0-.621-1.431,2.846,2.846,0,0,0-1.846-.513h-2.195Z"/>
      <path d="M626.176,216.178h5.148v1.548h-7V205.594h6.912v1.548h-5.058v3.744h4.482v1.548h-4.482Z"/>
      <path d="M641.6,217.726l-.954-2.971h-4.9l-.972,2.971h-1.962l4.194-12.132h2.43l4.14,12.132Zm-5.346-4.518h3.889l-.2-.612q-.684-2.124-1.116-3.519c-.287-.93-.462-1.509-.521-1.738l-.09-.341q-.2.846-1.765,5.6Z"/>
      <path d="M651.754,217.726l-2.844-4.608h-1.6v4.608h-1.855V205.594h3.384a4.672,4.672,0,0,1,3.223,1.016,3.531,3.531,0,0,1,1.133,2.764,3.75,3.75,0,0,1-.648,2.168,3.507,3.507,0,0,1-1.745,1.288l3.168,4.9Zm-4.445-10.584v4.428h1.673a2.35,2.35,0,0,0,1.747-.6,2.2,2.2,0,0,0,.593-1.612q0-2.214-2.429-2.213Z"/>
      <path d="M661.96,216.087h4.968v1.639h-6.823V205.594h1.855Z"/>
      <path d="M676.773,217.726l-.953-2.971h-4.9l-.972,2.971H667.99l4.194-12.132h2.43l4.14,12.132Zm-5.345-4.518h3.888l-.2-.612q-.684-2.124-1.116-3.519t-.522-1.738l-.089-.341q-.2.846-1.765,5.6Z"/>
      <path d="M680.626,217.726V205.594h1.854v12.132Zm4.3-6.013,4.717,6.013h-2.34l-4.591-6,4.41-6.137h2.25Z"/>
      <path d="M693.262,216.178h5.148v1.548h-7V205.594h6.912v1.548h-5.058v3.744h4.482v1.548h-4.482Z"/>
    </g>
    <g>
      <path d="M112.619,60.087h4.968v1.639h-6.822V49.594h1.854Z"/>
      <path d="M127.433,61.726l-.954-2.971h-4.9l-.972,2.971h-1.962l4.194-12.132h2.43l4.14,12.132Zm-5.346-4.518h3.888l-.2-.612q-.684-2.124-1.116-3.519t-.522-1.738l-.09-.341q-.2.846-1.764,5.6Z"/>
      <path d="M131.285,61.726V49.594h1.854V61.726Zm4.3-6.013,4.716,6.013h-2.34l-4.59-5.995,4.41-6.137h2.25Z"/>
      <path d="M143.921,60.178h5.148v1.548h-7V49.594h6.912v1.548h-5.058v3.744H148.4v1.548h-4.482Z"/>
      <path d="M163.774,61.726l-.953-2.971h-4.9l-.972,2.971h-1.962l4.194-12.132h2.43l4.139,12.132Zm-5.345-4.518h3.887l-.2-.612q-.684-2.124-1.117-3.519t-.522-1.738L160.391,51q-.2.846-1.765,5.6Z"/>
      <path d="M173.926,61.726l-2.843-4.608h-1.6v4.608h-1.854V49.594h3.385a4.666,4.666,0,0,1,3.221,1.016,3.529,3.529,0,0,1,1.135,2.764,3.758,3.758,0,0,1-.649,2.168,3.507,3.507,0,0,1-1.745,1.288l3.168,4.9ZM169.48,51.142V55.57h1.674a2.346,2.346,0,0,0,1.746-.6,2.2,2.2,0,0,0,.595-1.612q0-2.214-2.431-2.213Z"/>
      <path d="M184.15,61.726l-2.844-4.608h-1.6v4.608H177.85V49.594h3.384a4.669,4.669,0,0,1,3.222,1.016,3.528,3.528,0,0,1,1.134,2.764,3.75,3.75,0,0,1-.648,2.168A3.505,3.505,0,0,1,183.2,56.83l3.168,4.9ZM179.7,51.142V55.57h1.674a2.346,2.346,0,0,0,1.746-.6,2.2,2.2,0,0,0,.594-1.612q0-2.214-2.43-2.213Z"/>
      <path d="M187.588,55.605A6.6,6.6,0,0,1,189.1,51.07a5.7,5.7,0,0,1,8.136-.009,6.642,6.642,0,0,1,1.494,4.544,6.65,6.65,0,0,1-1.5,4.555,5.672,5.672,0,0,1-8.118,0A6.6,6.6,0,0,1,187.588,55.605Zm2.907-3.3a5.176,5.176,0,0,0-.963,3.3,5.112,5.112,0,0,0,.99,3.312,3.507,3.507,0,0,0,5.31.019,5.239,5.239,0,0,0,.954-3.331,5.179,5.179,0,0,0-.963-3.312,3.233,3.233,0,0,0-2.673-1.206A3.2,3.2,0,0,0,190.5,52.3Z"/>
      <path d="M207.333,49.773h1.639l1.278,4.321,1.638,5.706q.666-3.276,1.241-5.706l1.062-4.5h1.872l-2.969,12.132h-2.215l-1.151-3.834-1.566-5.418q-.416,1.71-1.513,5.418l-1.115,3.834H203.3l-3.186-12.132h1.926l1.134,4.482,1.332,5.688q.81-3.024,1.584-5.688Z"/>
      <path d="M225.226,49.594h1.854V61.726h-1.854v-5.31h-5.455v5.31h-1.854V49.594h1.854v5.219h5.455Z"/>
      <path d="M231.579,60.178h5.148v1.548h-7V49.594h6.912v1.548h-5.058v3.744h4.482v1.548h-4.482Z"/>
      <path d="M247.005,61.726l-.954-2.971h-4.9l-.972,2.971h-1.962l4.194-12.132h2.43l4.14,12.132Zm-5.346-4.518h3.888l-.2-.612q-.685-2.124-1.117-3.519t-.522-1.738l-.09-.341q-.2.846-1.764,5.6Z"/>
      <path d="M250.857,49.594h3.78a6.1,6.1,0,0,1,4.428,1.674,5.683,5.683,0,0,1,1.728,4.266,6.257,6.257,0,0,1-1.629,4.445,5.839,5.839,0,0,1-4.491,1.747h-3.816Zm1.89,10.566h1.908a3.867,3.867,0,0,0,3.15-1.3,5.027,5.027,0,0,0,1.08-3.33,4.368,4.368,0,0,0-1.17-3.115,4.081,4.081,0,0,0-3.114-1.241h-1.854Z"/>
    </g>
    <g>
      <path d="M411.532,276.726H410.2l-3.042-4.933H404.98v4.933h-1.116V264.594H406.6a4.573,4.573,0,0,1,3.177.963,3.509,3.509,0,0,1,1.053,2.727,3.648,3.648,0,0,1-.684,2.106,3.257,3.257,0,0,1-1.835,1.206ZM404.98,270.8h1.962a2.733,2.733,0,0,0,2.052-.739,2.522,2.522,0,0,0,.72-1.836q0-2.644-2.988-2.646H404.98Z"/>
      <path d="M420.928,272.171v-7.577h1.116v7.542a4.957,4.957,0,0,1-1.134,3.536,4.867,4.867,0,0,1-6.363.028,4.747,4.747,0,0,1-1.125-3.42v-7.686h1.116v7.668a3.648,3.648,0,0,0,.855,2.673,3.125,3.125,0,0,0,2.313.855Q420.928,275.79,420.928,272.171Z"/>
      <path d="M424.924,276.726V264.594h1.53l3.1,5.13,3.42,5.688q-.036-1.872-.036-5.67v-5.148h1.116v12.132h-1.53l-3.078-5.1L426,265.908q.036,1.944.036,5.688v5.13Z"/>
      <path d="M436.93,276.726V264.594h1.53l3.1,5.13,3.42,5.688q-.036-1.872-.036-5.67v-5.148h1.116v12.132h-1.53l-3.078-5.1-3.438-5.723q.036,1.944.036,5.688v5.13Z"/>
      <path d="M449.025,276.726V264.594h1.117v12.132Z"/>
      <path d="M453.111,276.726V264.594h1.531l3.1,5.13,3.42,5.688q-.036-1.872-.035-5.67v-5.148h1.115v12.132h-1.529l-3.079-5.1-3.438-5.723q.036,1.944.037,5.688v5.13Z"/>
      <path d="M474.315,270.047v5.779a5.93,5.93,0,0,1-3.6,1.044,6.062,6.062,0,0,1-4.455-1.665,6.128,6.128,0,0,1-1.683-4.563,6.332,6.332,0,0,1,1.647-4.5,5.456,5.456,0,0,1,4.167-1.765,6.678,6.678,0,0,1,3.528.847v1.242a5.738,5.738,0,0,0-3.384-.972,4.563,4.563,0,0,0-3.465,1.413,5.2,5.2,0,0,0-1.341,3.735,5.131,5.131,0,0,0,1.332,3.753,4.906,4.906,0,0,0,3.672,1.358,5.3,5.3,0,0,0,2.466-.557v-4.158h-2.862v-.991Z"/>
      <path d="M413.449,286.625v1.243a3.994,3.994,0,0,0-1.134-.486,5.023,5.023,0,0,0-1.368-.2,3.035,3.035,0,0,0-1.926.566,1.824,1.824,0,0,0-.72,1.5,1.746,1.746,0,0,0,.828,1.557,6.86,6.86,0,0,0,.784.486q.332.171,1.017.459.628.27.953.423a7.451,7.451,0,0,1,.828.477,3.354,3.354,0,0,1,.766.639,3.24,3.24,0,0,1,.467.809,2.8,2.8,0,0,1,.207,1.09,2.9,2.9,0,0,1-1.062,2.421,4.255,4.255,0,0,1-2.717.837,6.058,6.058,0,0,1-3.186-.792v-1.243a4.472,4.472,0,0,0,1.4.685,5.725,5.725,0,0,0,1.736.27,3.149,3.149,0,0,0,1.99-.559,1.916,1.916,0,0,0,.711-1.6,1.668,1.668,0,0,0-.54-1.287,5.786,5.786,0,0,0-1.566-.946q-.145-.07-.631-.278c-.323-.138-.552-.237-.683-.3s-.337-.162-.613-.306a3.362,3.362,0,0,1-.6-.378q-.189-.162-.477-.432a1.807,1.807,0,0,1-.414-.54,4.661,4.661,0,0,1-.234-.639,2.811,2.811,0,0,1-.108-.783,2.85,2.85,0,0,1,1.1-2.385,4.232,4.232,0,0,1,2.682-.856A5.3,5.3,0,0,1,413.449,286.625Z"/>
      <path d="M416.761,286.194h2.916a4.875,4.875,0,0,1,3.339,1.071,3.574,3.574,0,0,1,1.215,2.817,3.339,3.339,0,0,1-1.179,2.574,4.568,4.568,0,0,1-3.177,1.062h-2v4.608h-1.116Zm1.116,6.534H420a3.244,3.244,0,0,0,2.259-.756,2.441,2.441,0,0,0,.837-1.89,2.713,2.713,0,0,0-.864-2.115,3.491,3.491,0,0,0-2.43-.783h-1.926Z"/>
      <path d="M434.149,298.326h-1.332l-3.042-4.932H427.6v4.932h-1.116V286.194h2.736a4.573,4.573,0,0,1,3.177.963,3.509,3.509,0,0,1,1.053,2.727,3.648,3.648,0,0,1-.684,2.106,3.26,3.26,0,0,1-1.836,1.206ZM427.6,292.4h1.962a2.736,2.736,0,0,0,2.052-.738,2.525,2.525,0,0,0,.72-1.836q0-2.646-2.988-2.646H427.6Z"/>
      <path d="M436.128,298.326V286.194h1.117v12.132Z"/>
      <path d="M440.214,298.326V286.194h1.531l3.095,5.13,3.42,5.688q-.036-1.872-.035-5.67v-5.148h1.115v12.132h-1.529l-3.079-5.1-3.438-5.723q.036,1.944.037,5.688v5.13Z"/>
      <path d="M461.418,291.647v5.779a5.923,5.923,0,0,1-3.6,1.044,6.058,6.058,0,0,1-4.455-1.665,6.128,6.128,0,0,1-1.683-4.563,6.332,6.332,0,0,1,1.647-4.5,5.456,5.456,0,0,1,4.167-1.764,6.678,6.678,0,0,1,3.528.846v1.242a5.738,5.738,0,0,0-3.384-.972,4.563,4.563,0,0,0-3.465,1.413,5.2,5.2,0,0,0-1.341,3.735A5.131,5.131,0,0,0,454.164,296a4.906,4.906,0,0,0,3.672,1.359,5.3,5.3,0,0,0,2.466-.558v-4.158H457.44v-.991Z"/>
      <path d="M470.292,286.625v1.243a4.019,4.019,0,0,0-1.134-.486,5.028,5.028,0,0,0-1.368-.2,3.034,3.034,0,0,0-1.926.566,1.821,1.821,0,0,0-.72,1.5,1.746,1.746,0,0,0,.828,1.557,6.946,6.946,0,0,0,.783.486q.333.171,1.017.459.63.27.954.423a7.543,7.543,0,0,1,.828.477,3.325,3.325,0,0,1,.765.639,3.211,3.211,0,0,1,.468.809,2.8,2.8,0,0,1,.207,1.09,2.9,2.9,0,0,1-1.062,2.421,4.258,4.258,0,0,1-2.718.837,6.063,6.063,0,0,1-3.186-.792v-1.243a4.494,4.494,0,0,0,1.395.685,5.736,5.736,0,0,0,1.737.27,3.144,3.144,0,0,0,1.989-.559,1.913,1.913,0,0,0,.711-1.6,1.665,1.665,0,0,0-.54-1.287,5.77,5.77,0,0,0-1.566-.946q-.144-.07-.63-.278t-.684-.3q-.2-.09-.612-.306a3.362,3.362,0,0,1-.6-.378q-.189-.162-.477-.432a1.807,1.807,0,0,1-.414-.54,4.533,4.533,0,0,1-.234-.639,2.774,2.774,0,0,1-.108-.783,2.852,2.852,0,0,1,1.1-2.385,4.233,4.233,0,0,1,2.682-.856A5.3,5.3,0,0,1,470.292,286.625Z"/>
    </g>
    <g>
      <path d="M56.177,464.26V466.4a5.875,5.875,0,0,0-3.192-.882,2.89,2.89,0,0,0-1.817.514,1.636,1.636,0,0,0-.661,1.355,1.612,1.612,0,0,0,.651,1.343,9.717,9.717,0,0,0,1.995,1.092q.882.378,1.375.652a9.458,9.458,0,0,1,1.135.766,3.045,3.045,0,0,1,.944,1.176,3.805,3.805,0,0,1,.3,1.564,3.578,3.578,0,0,1-1.323,2.941,5.269,5.269,0,0,1-3.423,1.071,7.516,7.516,0,0,1-3.864-.9v-2.247a6.247,6.247,0,0,0,3.843,1.238,2.853,2.853,0,0,0,1.827-.535,1.789,1.789,0,0,0,.672-1.481,1.574,1.574,0,0,0-.4-1.039,2.941,2.941,0,0,0-.861-.715q-.462-.24-1.386-.66-.546-.252-.767-.357t-.724-.379a5.668,5.668,0,0,1-.745-.461c-.161-.127-.361-.3-.6-.525a2.272,2.272,0,0,1-.515-.672,5.964,5.964,0,0,1-.294-.787,3.363,3.363,0,0,1-.136-.977,3.46,3.46,0,0,1,1.312-2.856,5.263,5.263,0,0,1,3.392-1.05A7.216,7.216,0,0,1,56.177,464.26Z"/>
      <path d="M68.84,477.847l-1.113-3.465H62.015l-1.134,3.465H58.592l4.893-14.154H66.32l4.83,14.154ZM62.6,472.576h4.536l-.231-.715q-.8-2.476-1.3-4.105T65,465.729l-.105-.4q-.231.987-2.058,6.531Z"/>
      <path d="M73.334,477.847V463.693H75.9l3.486,5.922q.965,1.659,1.753,3.066t1.082,1.973l.294.588q-.126-1.91-.126-5.606v-5.943h2.163v14.154H81.986l-3.507-5.9q-.945-1.594-1.733-3.013t-1.1-2.047l-.315-.61q.166,2.1.168,5.65v5.922Z"/>
      <path d="M92.779,463.693H97.42a5.411,5.411,0,0,1,3.507,1.039,3.555,3.555,0,0,1,.619,4.8,2.934,2.934,0,0,1-1.69,1.133,3.4,3.4,0,0,1,1.943,1.072,3.292,3.292,0,0,1,.787,2.31,3.561,3.561,0,0,1-1.145,2.74,4.565,4.565,0,0,1-3.223,1.061H92.779Zm2.163,1.785v4.346H96.9a3.6,3.6,0,0,0,2.342-.64,2.069,2.069,0,0,0,.766-1.669,1.824,1.824,0,0,0-.682-1.47,3.181,3.181,0,0,0-2.069-.567Zm0,10.584h2.772q2.667,0,2.667-2.206a2.043,2.043,0,0,0-.724-1.668,3.312,3.312,0,0,0-2.153-.6H94.942Z"/>
      <path d="M107.143,476.041h6.006v1.806H104.98V463.693h8.064V465.5h-5.9v4.369h5.229v1.806h-5.229Z"/>
      <path d="M123.124,477.847l-3.318-5.376h-1.869v5.376h-2.163V463.693h3.948a5.441,5.441,0,0,1,3.759,1.186A4.113,4.113,0,0,1,124.8,468.1a4.382,4.382,0,0,1-.756,2.53,4.105,4.105,0,0,1-2.037,1.5l3.7,5.712ZM117.937,465.5v5.166h1.953a2.736,2.736,0,0,0,2.037-.7,2.562,2.562,0,0,0,.693-1.879q0-2.585-2.835-2.584Z"/>
      <path d="M127.7,477.847V463.693h2.562l3.486,5.922q.964,1.659,1.753,3.066t1.081,1.973l.294.588q-.126-1.91-.126-5.606v-5.943h2.164v14.154h-2.562l-3.507-5.9q-.946-1.594-1.733-3.013t-1.1-2.047l-.315-.61q.168,2.1.168,5.65v5.922Z"/>
      <path d="M151.347,477.847l-1.113-3.465h-5.712l-1.134,3.465H141.1l4.893-14.154h2.835l4.83,14.154Zm-6.237-5.271h4.536l-.231-.715q-.8-2.476-1.3-4.105t-.609-2.027l-.1-.4q-.231.987-2.058,6.531Z"/>
      <path d="M163.191,477.847l-3.318-5.376H158v5.376h-2.163V463.693h3.948a5.441,5.441,0,0,1,3.759,1.186,4.113,4.113,0,0,1,1.323,3.224,4.382,4.382,0,0,1-.756,2.53,4.1,4.1,0,0,1-2.037,1.5l3.7,5.712ZM158,465.5v5.166h1.953a2.736,2.736,0,0,0,2.037-.7,2.562,2.562,0,0,0,.693-1.879q0-2.585-2.835-2.584Z"/>
      <path d="M167.769,463.693h4.41a7.117,7.117,0,0,1,5.166,1.953,6.628,6.628,0,0,1,2.016,4.977,7.3,7.3,0,0,1-1.9,5.187,6.814,6.814,0,0,1-5.239,2.037h-4.452Zm2.2,12.327H172.2a4.511,4.511,0,0,0,3.675-1.512,5.865,5.865,0,0,0,1.26-3.885,5.089,5.089,0,0,0-1.365-3.633,4.752,4.752,0,0,0-3.633-1.449h-2.163Z"/>
      <path d="M181.944,477.847V463.693h2.141v14.154Z"/>
      <path d="M187.32,477.847V463.693h2.562l3.486,5.922q.964,1.659,1.753,3.066t1.082,1.973l.294.588q-.126-1.91-.126-5.606v-5.943h2.163v14.154h-2.562l-3.507-5.9q-.946-1.594-1.733-3.013t-1.1-2.047l-.315-.61q.168,2.1.168,5.65v5.922Z"/>
      <path d="M201.032,470.707a7.706,7.706,0,0,1,1.764-5.293,6.658,6.658,0,0,1,9.493-.01,8.935,8.935,0,0,1-.011,10.616,6.618,6.618,0,0,1-9.471,0A7.7,7.7,0,0,1,201.032,470.707Zm3.392-3.853a6.038,6.038,0,0,0-1.124,3.853,5.958,5.958,0,0,0,1.156,3.863,4.093,4.093,0,0,0,6.194.022,6.108,6.108,0,0,0,1.113-3.885,6.029,6.029,0,0,0-1.123-3.864,4.126,4.126,0,0,0-6.216.011Z"/>
    </g>
    <g>
      <path d="M974.072,168.4h4.752v.913H973.08V158.527h.992Z"/>
      <path d="M987.9,169.312l-1.024-2.993H982.1l-1.04,2.993h-1.072l3.809-10.785h1.439l3.729,10.785Zm-5.488-3.873h4.176l-.24-.688-1.823-5.392q-.21.641-1.873,5.409Z"/>
      <path d="M990.855,169.312V158.527h.993v10.785ZM993.4,164l4.481,5.312h-1.313L992.137,164l4.271-5.473h1.248Z"/>
      <path d="M1000.633,168.4h4.847v.913h-5.839V158.527h5.744v.912h-4.752v4.033h4.191v.911h-4.191Z"/>
      <path d="M968.48,187.6h4.848v.912h-5.84V177.728h5.744v.912H968.48v4.032h4.192v.911H968.48Z"/>
      <path d="M982.145,188.512h-1.184l-2.705-4.384H976.32v4.384h-.992V177.728h2.432a4.064,4.064,0,0,1,2.824.855,3.118,3.118,0,0,1,.937,2.425,3.242,3.242,0,0,1-.609,1.872,2.9,2.9,0,0,1-1.632,1.072Zm-5.825-5.264h1.744a2.437,2.437,0,0,0,1.825-.656,2.253,2.253,0,0,0,.639-1.632q0-2.352-2.655-2.352H976.32Z"/>
      <path d="M989.456,177.888h1.168l1.2,3.856,1.791,5.824q.882-4.1,1.265-5.808l.895-4.032h.993l-2.448,10.784h-1.36l-1.071-3.408-1.825-5.92q-.609,2.208-1.712,5.92l-1.008,3.408h-1.36l-2.8-10.784h1.041l1.007,4,1.456,5.776q1.071-3.823,1.648-5.776Z"/>
      <path d="M998.768,188.512V177.728h.992v10.784Z"/>
      <path d="M1002.4,188.512V177.728h1.361l2.752,4.56,3.04,5.056q-.033-1.665-.032-5.04v-4.576h.992v10.784h-1.36l-2.736-4.528-3.057-5.088q.033,1.728.033,5.056v4.56Z"/>
    </g>
    <g>
      <path d="M75.9,144.251v1.17a7.424,7.424,0,0,0-1.4-.585,6.57,6.57,0,0,0-1.692-.171,4.7,4.7,0,0,0-3.483,1.413,5.014,5.014,0,0,0-1.395,3.681,5.228,5.228,0,0,0,1.377,3.8,4.865,4.865,0,0,0,3.663,1.422,4.651,4.651,0,0,0,2.97-.936v1.224a5.174,5.174,0,0,1-3.024.774,6.047,6.047,0,0,1-4.446-1.674,6.189,6.189,0,0,1-1.692-4.608,5.912,5.912,0,0,1,6.066-6.156A6.7,6.7,0,0,1,75.9,144.251Z"/>
      <path d="M85.76,155.9H84.428l-3.042-4.932H79.208V155.9H78.092V143.765h2.736a4.573,4.573,0,0,1,3.177.963,3.505,3.505,0,0,1,1.053,2.727,3.654,3.654,0,0,1-.683,2.106,3.258,3.258,0,0,1-1.836,1.206Zm-6.552-5.922H81.17a2.736,2.736,0,0,0,2.052-.738,2.525,2.525,0,0,0,.72-1.836q0-2.646-2.988-2.646H79.208Z"/>
      <path d="M88.766,154.871H94.22V155.9H87.65V143.765h6.462v1.026H88.766v4.536h4.716v1.026H88.766Z"/>
      <path d="M102.644,144.2v1.242a4.019,4.019,0,0,0-1.134-.486,5.034,5.034,0,0,0-1.368-.2,3.028,3.028,0,0,0-1.926.567,1.818,1.818,0,0,0-.72,1.5,1.746,1.746,0,0,0,.828,1.557,6.946,6.946,0,0,0,.783.486c.222.114.56.267,1.017.459.419.18.738.321.954.423a7.711,7.711,0,0,1,.828.477,3.325,3.325,0,0,1,.765.639,3.231,3.231,0,0,1,.468.81,2.814,2.814,0,0,1,.207,1.089,2.9,2.9,0,0,1-1.062,2.421,4.258,4.258,0,0,1-2.718.837,6.058,6.058,0,0,1-3.186-.792v-1.242a4.515,4.515,0,0,0,1.4.684,5.736,5.736,0,0,0,1.737.27,3.152,3.152,0,0,0,1.989-.558,1.916,1.916,0,0,0,.711-1.6,1.665,1.665,0,0,0-.54-1.287,5.746,5.746,0,0,0-1.566-.945q-.144-.072-.63-.279t-.684-.3q-.2-.09-.612-.306a3.362,3.362,0,0,1-.6-.378q-.189-.162-.477-.432a1.807,1.807,0,0,1-.414-.54,4.533,4.533,0,0,1-.234-.639,2.774,2.774,0,0,1-.108-.783,2.849,2.849,0,0,1,1.1-2.385,4.233,4.233,0,0,1,2.682-.855A5.293,5.293,0,0,1,102.644,144.2Z"/>
      <path d="M112.616,143.765v1.026H109.25V155.9h-1.116V144.791h-3.348v-1.026Z"/>
      <path d="M115.442,154.871h5.346V155.9h-6.462V143.765h1.116Z"/>
      <path d="M122.948,155.9V143.765h1.116V155.9Z"/>
      <path d="M127.034,155.9V143.765h1.53l3.1,5.13,3.42,5.688q-.036-1.872-.036-5.67v-5.148h1.116V155.9h-1.53l-3.078-5.094-3.438-5.724q.036,1.944.036,5.688v5.13Z"/>
      <path d="M140.156,154.871h5.453V155.9H139.04V143.765H145.5v1.026h-5.345v4.536h4.716v1.026h-4.716Z"/>
    </g>
    <g>
      <path d="M768.73,211.9l.686-9.436h1.442l1.246,3.444,1.513,4.4q.812-2.3,1.6-4.4l1.3-3.444h1.442l.826,9.436h-1.135l-.322-3.724-.336-4.186q-.741,2.072-1.525,4.186l-1.317,3.514H773.07l-1.246-3.514-1.428-4.1q0,.546-.265,4.1l-.267,3.724Z"/>
      <path d="M780.42,207.138a5.218,5.218,0,0,1,1.142-3.542,4.319,4.319,0,0,1,6.2-.007,6.121,6.121,0,0,1-.014,7.1,4.248,4.248,0,0,1-6.168-.007A5.2,5.2,0,0,1,780.42,207.138Zm1.19,0a4.266,4.266,0,0,0,.833,2.772,2.718,2.718,0,0,0,2.219,1.022,2.678,2.678,0,0,0,2.234-1.008,5.282,5.282,0,0,0-.007-5.572,2.978,2.978,0,0,0-4.473.007A4.356,4.356,0,0,0,781.61,207.138Z"/>
      <path d="M790.221,207.138a5.222,5.222,0,0,1,1.14-3.542,4.319,4.319,0,0,1,6.2-.007,6.121,6.121,0,0,1-.014,7.1,4.246,4.246,0,0,1-6.166-.007A5.185,5.185,0,0,1,790.221,207.138Zm1.189,0a4.261,4.261,0,0,0,.833,2.772,2.722,2.722,0,0,0,2.22,1.022,2.673,2.673,0,0,0,2.232-1.008,5.282,5.282,0,0,0-.007-5.572,2.978,2.978,0,0,0-4.473.007A4.362,4.362,0,0,0,791.41,207.138Z"/>
      <path d="M800.426,211.9v-9.436h1.428l2.367,3.976,2.393,4.088q-.057-1.358-.055-4.074v-3.99h1.133V211.9h-1.428L803.9,207.95q-.714-1.189-1.316-2.219t-.853-1.477l-.239-.434q.071,1.457.071,4.1V211.9Z"/>
      <path d="M816.12,211.9h-1.358l-2.31-3.724h-1.47V211.9h-1.134v-9.436h2.366a3.577,3.577,0,0,1,2.485.77,2.73,2.73,0,0,1,.847,2.128,2.942,2.942,0,0,1-.519,1.666,2.594,2.594,0,0,1-1.384.966Zm-5.138-8.456v3.766h1.428a1.966,1.966,0,0,0,1.477-.525,1.854,1.854,0,0,0,.511-1.351q0-1.89-2.114-1.89Z"/>
      <path d="M817.6,211.9v-9.436h1.134V211.9Z"/>
      <path d="M820.979,202.462h2.8a4.719,4.719,0,0,1,3.424,1.3,4.461,4.461,0,0,1,1.337,3.353,4.907,4.907,0,0,1-1.239,3.416,4.429,4.429,0,0,1-3.465,1.372h-2.855Zm1.147,8.442h1.694a3.235,3.235,0,0,0,2.646-1.085,4.118,4.118,0,0,0,.895-2.709,3.61,3.61,0,0,0-1-2.59,3.427,3.427,0,0,0-2.6-1.05h-1.638Z"/>
      <path d="M837.6,206.606v4.508h-.014l.014.042a4.731,4.731,0,0,1-2.926.854,4.824,4.824,0,0,1-3.514-1.295,4.726,4.726,0,0,1-1.33-3.549,4.833,4.833,0,0,1,1.322-3.507,4.459,4.459,0,0,1,3.34-1.365,5.364,5.364,0,0,1,2.758.644v1.218a4.727,4.727,0,0,0-2.66-.756,3.42,3.42,0,0,0-2.576,1.029,4.308,4.308,0,0,0-.014,5.488,3.606,3.606,0,0,0,2.7,1,4.133,4.133,0,0,0,1.765-.378V207.6H834.39v-.994Z"/>
      <path d="M840.746,210.9h4.129v.994h-5.264v-9.436h5.2v.994h-4.06v3.234h3.584v.994h-3.584Z"/>
    </g>
    <g>
      <path d="M283.156,399.462h1.134V408.9h-1.134v-4.269h-4.578V408.9h-1.134v-9.435h1.134v4.143h4.578Z"/>
      <path d="M286.53,408.9v-9.435h1.134V408.9Z"/>
      <path d="M297.268,403.605v4.508h-.014l.014.042a4.729,4.729,0,0,1-2.926.855,4.824,4.824,0,0,1-3.514-1.3,4.724,4.724,0,0,1-1.33-3.55,4.83,4.83,0,0,1,1.323-3.507,4.453,4.453,0,0,1,3.339-1.364,5.354,5.354,0,0,1,2.758.644v1.217a4.725,4.725,0,0,0-2.66-.756,3.419,3.419,0,0,0-2.576,1.03,4.306,4.306,0,0,0-.014,5.487,3.6,3.6,0,0,0,2.7,1,4.126,4.126,0,0,0,1.764-.378V404.6h-2.072v-1Z"/>
      <path d="M305,399.462h1.134V408.9H305v-4.269h-4.578V408.9h-1.134v-9.435h1.134v4.143H305Z"/>
      <path d="M309.42,407.875h4.018V408.9h-5.152v-9.435h1.134Z"/>
      <path d="M321.25,408.9l-.826-2.477h-3.99l-.84,2.477h-1.218l3.29-9.435h1.568l3.234,9.435Zm-4.494-3.444H320.1l-.182-.546-1.47-4.536q-.168.6-1.512,4.551Z"/>
      <path d="M324.036,408.9v-9.435h1.427l2.367,3.976,2.394,4.087q-.057-1.357-.057-4.074v-3.989H331.3V408.9h-1.428l-2.367-3.948q-.713-1.19-1.316-2.219t-.854-1.476l-.237-.435q.069,1.457.069,4.1V408.9Z"/>
      <path d="M333.458,399.462h2.8a4.717,4.717,0,0,1,3.423,1.3,4.456,4.456,0,0,1,1.338,3.352,4.9,4.9,0,0,1-1.24,3.416,4.427,4.427,0,0,1-3.465,1.372h-2.855Zm1.147,8.441H336.3a3.231,3.231,0,0,0,2.646-1.085,4.111,4.111,0,0,0,.9-2.709,3.606,3.606,0,0,0-1-2.589,3.421,3.421,0,0,0-2.6-1.05h-1.638Z"/>
    </g>
    <circle cx="86" cy="430" r="5" style="fill: #32619b;stroke: #fff;stroke-miterlimit: 10;stroke-width: 2px"/>
    <circle cx="86" cy="440" r="5" style="fill: #f3630f;stroke: #fff;stroke-miterlimit: 10;stroke-width: 2px"/>
    <circle cx="304.707" cy="176.229" r="5" style="fill: #970029;stroke: #fff;stroke-miterlimit: 10;stroke-width: 2px"/>
    <circle cx="311" cy="184" r="5" style="fill: #32619b;stroke: #fff;stroke-miterlimit: 10;stroke-width: 2px"/>
    <circle cx="317.293" cy="191.771" r="5" style="fill: #589446;stroke: #fff;stroke-miterlimit: 10;stroke-width: 2px"/>
    <circle cx="420" cy="237" r="5" style="fill: #589446;stroke: #fff;stroke-miterlimit: 10;stroke-width: 2px"/>
    <circle cx="421" cy="248" r="5" style="fill: #f3630f;stroke: #fff;stroke-miterlimit: 10;stroke-width: 2px"/>
    <g>
      <g style="clip-path: url(#clip-path)">
        <g>
          <path d="M812.192,129.759a4.314,4.314,0,0,1-3.1-.762,3.546,3.546,0,0,1-.58-5.3l20.869-23.822a4.4,4.4,0,0,1,5.8-.654,3.546,3.546,0,0,1,.579,5.3l-20.868,23.821A4.327,4.327,0,0,1,812.192,129.759Z" style="fill: #f3630f;stroke: #fff;stroke-miterlimit: 10"/>
          <path d="M827.612,136.017a4.308,4.308,0,0,1-3.1-.762,3.546,3.546,0,0,1-.58-5.3l20.869-23.821a4.4,4.4,0,0,1,5.8-.654,3.545,3.545,0,0,1,.579,5.3L830.313,134.6A4.326,4.326,0,0,1,827.612,136.017Z" style="fill: #009992;stroke: #fff;stroke-miterlimit: 10"/>
          <path d="M833.734,140.478a4.307,4.307,0,0,1-3.1-.762,3.545,3.545,0,0,1-.58-5.3l20.869-23.821a4.4,4.4,0,0,1,5.8-.654,3.544,3.544,0,0,1,.58,5.3l-20.869,23.822A4.328,4.328,0,0,1,833.734,140.478Z" style="fill: #993788;stroke: #fff;stroke-miterlimit: 10"/>
          <path d="M821.491,131.556a4.311,4.311,0,0,1-3.1-.761,3.546,3.546,0,0,1-.58-5.3l20.869-23.821a4.4,4.4,0,0,1,5.8-.654,3.546,3.546,0,0,1,.58,5.3l-20.869,23.822A4.326,4.326,0,0,1,821.491,131.556Z" style="fill: #aac909;stroke: #fff;stroke-miterlimit: 10"/>
        </g>
      </g>
      <path d="M844.179,130.591l-.4.494a4.464,4.464,0,0,1-6.275.7L822.519,114.4a4.464,4.464,0,0,1-.7-6.275l.4-.495a4.465,4.465,0,0,1,6.275-.7l14.989,17.387A4.464,4.464,0,0,1,844.179,130.591Z" style="fill: none;stroke: #fff;stroke-miterlimit: 10;stroke-width: 1.5px"/>
    </g>
  </g>
  <g id="hovers">
    <polygon id="route_1-6" data-name="route_1" points="596 175 628 219 736 176 743 158 823 120 815 110 772 121 714 132 682 142 596 175" style="fill: #f0f;opacity: 0"/>
    <polygon id="route_3-6" data-name="route_3" points="736 176 743 158 824 122 835 132 881 179 872 193 858 184 851 158 838 140 758 186 736 176" style="fill: #29abe2;opacity: 0"/>
    <polygon id="route_11-6" data-name="route_11" points="832.093 122.491 920 78 960 170 1014 147 1002 42 894 42 865 75 860 95 827 115 832.093 122.491" style="fill: #a8695b;opacity: 0"/>
    <polygon id="big_bear_otm-3" data-name="big_bear_otm" points="810 100 818 107 851 97 825 32 789 37 645 12 547 57 503 107 436 229 426 242 345 251 232 331 99 377 99 392 162 406 334 412 382 369 517 266 548 208 558 138 593 96 675 66 729 77 792 77 818 78 810 100" style="fill: #a8695b;opacity: 0"/>
    <polygon id="route_4-4" data-name="route_4" points="383 83 411 88 400 143 350 197 371 216 406 223 426 228 426 242 366 247 300 232 284 208 312 195 325 176 383 83" style="fill: #a8695b;opacity: 0"/>
    <polygon id="rim_otm-4" data-name="rim_otm" points="317 176 319.526 184 306 198 279 208 155 232 105 227 81 251 102 343 99 399 101 421 99 435 65 431 65 399 81 396 73 331 30 230 25 212 40 199 49 199 68 183 92 185 120 214 160 212 201 203 237 197 276 192 296 189 317 176" style="fill: #a8695b;opacity: 0"/>
    <polygon id="route_2-4" data-name="route_2" points="4 167 40 199 49 199 68 183 92 185 121 208 132.5 212 176 208 217 197 265 192 296 189 317 176 304.707 165 216 167 165 179 99 165 54 165 15 146 4 167" style="fill: #a8695b;opacity: 0"/>
    <polygon id="route_1-7" data-name="route_1" points="831 209 895 218 908 158 871 159 896 169 874 198 853 193 850 169 831 169 831 209" style="fill: #f0f;opacity: 0"/>
  </g>
</svg>
